<svg xmlns="http://www.w3.org/2000/svg" width="400" height="185" style="shape-rendering:geometricPrecision;text-rendering:geometricPrecision;image-rendering:optimizeQuality;fill-rule:evenodd;clip-rule:evenodd"><path fill="#02072b" d="M165.5-.5h8a286 286 0 0 1 16 13.5 50.6 50.6 0 0 0 10-1.5q5.118.465 9.5 3a116.3 116.3 0 0 1 16.5-15h8q6.61 2.567 12 7.5a924 924 0 0 0 57 16q2.25 1.25 3.5 3.5-.032 5.264 2.5 9.5 31.764.706 63 .5 13.779-4.96 28-5v2q-2.398-.401-4 1-2.851-.38-2 1-.512 1.258-2 1-1.602 1.401-4 1-2.024-1.716-1 0-.512 1.258-2 1-2.322-1.851-2 0-.512 1.258-2 1-3.965-1.51-1 0-1.063 1.356-3 1-2.024-1.716-1 0a507 507 0 0 1-45 1q-19.026.499-38-1a59.3 59.3 0 0 1 8-10q.5 2 1 0 2-1.5 0-3-.512-1.258-2-1-2-2-4 0-1.937.356-3-1 2.965-1.51-1 0-2.398.402-4-1-1.937.356-3-1 1.024-1.716-1 0-2.398.402-4-1-2.398.402-4-1-1.937.356-3-1-3.978.136-7-2-1.488.258-2-1 1.024-1.716-1 0-1.937.356-3-1-1.488.258-2-1 1.024-1.716-1 0-1.487.258-2-1-1.937.356-3-1-1.937.356-3-1 4-.5 0-1-1-2-2 0-2 .5 0 1-3.083 1.588-4 5-2.601-3.275-3-8a44 44 0 0 1-3-2q4-.5 0-1-.513-1.257-2-1 0-1-1-1-.513-1.257-2-1-2-4-4 0v1h-1q-1.059-1.586-1 1-2 .5 0 1-1.415 3.915-5 6l-2 1q-.513 1.258-2 1-.5-2-1 0-1.487-.258-2 1-2 1.5 0 3a61 61 0 0 1 9 12l-2 5q-8.524 12.023-21 20-14.573-9.072-23-24v-1a61 61 0 0 1 9-12q2-1.5 0-3-.513-1.258-2-1-.5-2-1 0-1.487.258-2-1-5.033-2.033-7-7 2-.5 0-1 .059-2.586-1-1-1 0-1-1-2-4-4 0-1.487-.257-2 1-1 0-1 1-1.487-.257-2 1-2.586-.06-1 1-.513 1.258-2 1-2 .5 0 1a38 38 0 0 1-2.5 8 27.3 27.3 0 0 0-3.5-5q0-1-1-1-1-2-2 0-2.586-.06-1 1-.513 1.258-2 1-.5-2-1 0-.513 1.258-2 1-1.064 1.356-3 1-.513 1.258-2 1-2.024-1.716-1 0-.513 1.258-2 1-2.024-1.716-1 0-.513 1.258-2 1-2.024-1.716-1 0-1.064 1.356-3 1-2.024-1.716-1 0-.513 1.258-2 1-2.024-1.716-1 0-.513 1.258-2 1-3.965-1.51-1 0-1.064 1.356-3 1-1-2-2 0-.513 1.258-2 1-2.024-1.716-1 0-1.064 1.356-3 1-3.965-1.51-1 0-1.064 1.356-3 1-2.322-1.851-2 0-.513 1.258-2 1-4.282-1.7-2 0-1.064 1.356-3 1-.5-2-1 0-2 1.5 0 3 0 1 1 1 4.5 3.252 7.5 8 .792 1.974-1.5 2h-64q-9.285.485-18-1-2.398.401-4-1h-3v-1q2.965-1.51-1 0-1.937.356-3-1-2.398.401-4-1-1.937.356-3-1a2.43 2.43 0 0 0 2-.5 17.8 17.8 0 0 0-7-1.5v-2a11 11 0 0 1 3.5-1 336 336 0 0 1 24.5 6q31.825.194 64-.5-.72-7.536 5-13a924 924 0 0 0 57-16q5.39-4.933 12-7.5m6 4h-4q2-4 4 0m60 0h-4q2-4 4 0" style="opacity:1"/><path fill="#705133" d="M167.5 3.5h4q0 1 1 1 0 1 1 1v1q1.967 4.967 7 7 .513 1.258 2 1h1q0 1 1 1-8 2-16 0 3.65-1.281-.5-3-.977-2.603.5-5-1.237-3.3-4-1v-1q1 0 1-1 1.487.257 2-1" style="opacity:1"/><path fill="#d5a06a" d="M226.5 4.5h1q1.314-.196 2 1 1.505 4.008 3 8-.37 1.82-2 2a88 88 0 0 1-10-3q3.585-2.085 5-6v-1q1 0 1-1" style="opacity:1"/><path fill="#9c724a" d="M220.5 12.5a88 88 0 0 0 10 3v1q-8.29.482-16-1 1 0 1-1h1q1.487.258 2-1z" style="opacity:1"/><path fill="#62462b" d="M227.5 4.5v-1h4q.513 1.257 2 1 1 0 1 1 .513 1.257 2 1v1a44 44 0 0 0 3 2q.399 4.725 3 8-1.653 2.388 2 2.5-3.812 2.772-3 7.5a53.6 53.6 0 0 1-6.5-8q-1.693-2.461-4.5-3v-1q1.63-.18 2-2-1.495-3.992-3-8-.686-1.196-2-1" style="opacity:1"/><path fill="#987048" d="M149.5 12.5h1q1.735 5.94-5 7a3.65 3.65 0 0 0 1 1.5q-3.804.279-7 1.5a18.4 18.4 0 0 0-6 .5q-9.997 6.74-22 9.5a120 120 0 0 0-11.5-3q-1.545-.504-1.5-2 1.936.356 3-1h2q1.487.258 2-1h2q1.936.356 3-1h1q1.936.356 3-1h1q1.487.258 2-1h2q1.936.356 3-1h1q1.487.258 2-1h1q1.487.258 2-1h1q1.936.356 3-1h1q1.487.258 2-1h1q1.487.258 2-1h1q1.487.258 2-1 1.936.356 3-1 1.487.258 2-1h1q1.487.258 2-1" style="opacity:1"/><path fill="#11a2a1" d="M195.5 16.5h4q-.247 4.795-.5 10a275 275 0 0 1-4 4q-2.16-.971-4.5-1a49.4 49.4 0 0 1 5-8.5q-.276-2.064-2-2.5v-1q1.487.258 2-1" style="opacity:1"/><path fill="#795737" d="M168.5 15.5a6630 6630 0 0 1-12 13 66 66 0 0 1-8-5.5 41 41 0 0 0-9-.5q3.196-1.221 7-1.5a3.65 3.65 0 0 1-1-1.5q6.735-1.06 5-7v-1h2q1 0 1 1a27.3 27.3 0 0 1 3.5 5 38 38 0 0 0 2.5-8v-1q1.487.258 2-1 1 0 1-1h2q2.763-2.3 4 1-1.477 2.397-.5 5 4.15 1.719.5 3" style="opacity:1"/><path fill="#2e190b" d="M213.5 15.5h1q7.71 1.482 16 1 2.807.539 4.5 3a53.6 53.6 0 0 0 6.5 8q.595 1.538 2 .5a33.7 33.7 0 0 0 9-6.5q4.337 1.354 9 1 1.167.984 2 2.5a19.3 19.3 0 0 0-3 6.5 44.7 44.7 0 0 0-11.5 3 150 150 0 0 0-18.5-3.5A169 169 0 0 1 220 49.5q-3.986 4.665-10 6-.76 2.244 1.5 3.5a25.1 25.1 0 0 1-7 7.5q-3.442-.953-5-4 3.06-2.516 6-5a4.93 4.93 0 0 1 .5-3q12.076-5.824 17.5-18 2.69-2.89 3-7-2.188-.1-4 1a61 61 0 0 0-9-12z" style="opacity:1"/><path fill="#4d2e17" d="M261.5 22.5q5.878 1.33 11 4-1.442 2.648-1 6 10.826-4.779 2 3.5l1 1q-1.934 2.703-5 3.5-7.128-6.8 0-14.5-2.244-.76-3.5 1.5a17.3 17.3 0 0 1-3.5 7 7.5 7.5 0 0 1-2-3 19.3 19.3 0 0 1 3-6.5q-.833-1.516-2-2.5" style="opacity:1"/><path fill="#c89861" d="M246.5 12.5a69 69 0 0 0 6 9 33.7 33.7 0 0 1-9 6.5q-1.405 1.038-2-.5-.812-4.728 3-7.5-3.653-.112-2-2.5.917-3.412 4-5" style="opacity:1"/><path fill="#4aede6" d="M193.5 18.5q1.724.436 2 2.5a49.4 49.4 0 0 0-5 8.5h-4l5-8q2.11-.71 2-3" style="opacity:1"/><path fill="#023c71" d="M207.5 23.5a16.6 16.6 0 0 1 5 6q-3.839-.453-7 1-3.305.155-6 2-1.596-9.965 8-9" style="opacity:1"/><path fill="#7a5938" d="M246.5 12.5v-1h2v1q1.063 1.356 3 1 1.063 1.356 3 1 .513 1.258 2 1h1q.512 1.258 2 1 1.063 1.356 3 1h1q.512 1.258 2 1 3.022 2.136 7 2 1.063 1.356 3 1 1.602 1.402 4 1 1.602 1.402 4 1h1q1.063 1.356 3 1 1.602 1.402 4 1h1q1.063 1.356 3 1h4q0 1 1 1-13.984 9.596-28-1-5.122-2.67-11-4-4.663.354-9-1a69 69 0 0 1-6-9" style="opacity:1"/><path fill="#2e190a" d="M168.5 15.5q8 2 16 0h1v3a61 61 0 0 0-9 12q-.814-.09-1-1l5-8a205 205 0 0 1-6.5-3 4.93 4.93 0 0 0-.5 3h-3a9.86 9.86 0 0 0 1 6 4.46 4.46 0 0 0 1.5-2q.561 1.375 1.5 2.5a14.4 14.4 0 0 0-2.5 5.5q-1.035-1.857-1.5 0-.962-2.314-3-4-13.677 7.553-28 2a14.8 14.8 0 0 0-3.5 4q-1.774-1.847-3.5 0a44 44 0 0 1-3 5.5q-3.929.227-7 2.5a19.4 19.4 0 0 1 1 8 15.9 15.9 0 0 1-6.5-5q-1.951.208-2.5 2-8.808 2.066-16 7.5a62.7 62.7 0 0 0 13-3.5q9.938 5.208 21 8v1h-40q-.63-4.237 3-6.5-7.718.605-13 7a72.5 72.5 0 0 1-17 0 15.7 15.7 0 0 1-4-2.5l-5 2.5q-14.991.75-30 .5a55 55 0 0 0 1 12 469 469 0 0 1-20-25 21.5 21.5 0 0 0 7 1h3q29.54-.488 59-.5l6-2q12.99-1.142 26-2 5.668-2.106 3-7.5-2.609 4.58-7 3 2.292-.026 1.5-2-3-4.748-7.5-8-1 0-1-1v-3h1q-.045 1.496 1.5 2 5.823 1.215 11.5 3 12.003-2.76 22-9.5a18.4 18.4 0 0 1 6-.5 41 41 0 0 1 9 .5 66 66 0 0 0 8 5.5q6.108-6.6 12-13" style="opacity:1"/><path fill="#067c96" d="M199.5 16.5q2.695 1.845 6 2-.163 3.02 2 5-9.596-.965-8 9v12q-9.225-5.22-13-15h4q2.34.029 4.5 1a275 275 0 0 0 4-4q.253-5.205.5-10" style="opacity:1"/><path fill="#110d0b" d="M269.5 40.5q2.571 1.857 6 2v9q-1.5.5-2 2a2.43 2.43 0 0 1-2-.5q2-3 0-6a106 106 0 0 0-9.5-5.5q-2.337 1.267-3-2-1.67 1.816-3.5 0-.253 1.346-1 3-1.954-1.827-3 1a27 27 0 0 0-7 2.5q1.574.739 3-.5 3.792 1.497 0 2.5 2.594 2.684 2 6.5-2.217-.393-4 1 2.827 1.046 1 3 2 1.68 1.5 4a21.5 21.5 0 0 1-7.5 5.5l7 1q-4.297.275-8 1.5-10.822.411-19 7.5-1.426 1.076-.5 2.5 6.237-4.488 13.5-4 1.577 1.083 2 3a9.86 9.86 0 0 0-6 1q1.615 1.808 4 2v14l-2 1q-.975-2.92-3.5-5a53 53 0 0 1-1.5-7 30 30 0 0 0-5-.5q3.41 3.803-2 6 1.426 1.076.5 2.5a7.3 7.3 0 0 1-2-3q-2.23 1.13-.5 2.5a21.4 21.4 0 0 1-5 0q-.725 5.193-3.5 1.5l-1 2q-1.48-1.007-3.5 0v-11q7.366-.82 10 6a43.1 43.1 0 0 0 1-13q-5.23 2.18-11 2-10.324.86-20-2-1.926 7.101 0 12 2.922-6.38 10-5v11a254 254 0 0 1-.5 18 18.5 18.5 0 0 1-3.5 2q-1.857-.465 0-1.5-7.832-.814 0-2.5-2.103-2.014 1-2.5-4.668-1.276-1-3.5-.5-1.5-2-2-1.794.519 0 1.5-4.778.986-5 6-7.787 5.646-17 9l1 1a9.5 9.5 0 0 0-2.5 1.5q-5.955-4.17-12-6-3.22 1.644-1.5 4.5a33.8 33.8 0 0 0-5 6l2 1a15 15 0 0 1-3 3.5q1.663 2.197-1.5 3-3.016-5.253-4 0-1.012-5.371-3.5 0 2.548 5.99-2 2a87 87 0 0 0-6.5 4l-1-2q-1 2-2 0a26.8 26.8 0 0 1-7.5 3.5q1.373.417 2 1.5h-13q-.627-1.083-2-1.5 5.063-1.981 10-1.5a44 44 0 0 0-3-5.5q1.684-1.566 4-2-1.255-1.517-1-3.5a4.93 4.93 0 0 0 3-.5q-2-1 0-2l-2-1q2.099-1.593 3-4-3.309-1.876-4-5.5a25 25 0 0 0-7 .5 58.3 58.3 0 0 0-7.5 10.5l-4-2q-6.288 1.784-13 5-5.697-2.46-10 2-6.672-1.342-13.5.5 1.985 1.224 2 3.5a232 232 0 0 0-29-22q-1.063-1.356-3-1-.257-4.946 2-1 1.195-.686 1-2 1.305-6.781 0-13.5l2-8-1-1q2.44.292 5 0a4.45 4.45 0 0 0-2-1.5 45.3 45.3 0 0 0-2.5-8A62 62 0 0 0 32.5 69l2-2A166 166 0 0 0 57 64.5q2.817.83 4.5 3 1.066 5.078-3.5 7-1.148-.105-1.5-1a6.85 6.85 0 0 1 1-4 16.3 16.3 0 0 0-4-2q-5.262 2.887-4 9-.31 3.232 0 7a62 62 0 0 0 10 4.5q2.84 1.62 1 4a2.43 2.43 0 0 0 2 .5q1.968.968 3 3-4.926 2.425-8 7 3.24-1.509 7.5 0a64.3 64.3 0 0 1 0 16q-.3 2.73-2.5 4-6.11-.67-6-7h-3q-6.002 5.9 1 11.5 2.55 1.437 5.5 1.5 13.76-1.117 27.5-2.5a47.9 47.9 0 0 0 13-6.5q3.324-1.054 5.5-4 2.237-6.065 3.5-12 2.776 8.778 11 13 17.407 5.297 24-12l2-5q2.686 8.598 9 15.5 26.316 9.823 29-18.5-.741-2.288-2-4-1.144-2.802-3-5-7.85-8.96-20-8a41 41 0 0 0 6-2.5 3.65 3.65 0 0 1-1-1.5q1.966-1.136 1.5-3a26 26 0 0 0-5 5q-3.553-2.14-1.5-5.5h-4q2.24-1.734-.5-2.5-4.01 2.223-7.5-.5 5.817-1.423 0-3.5l1-2q-3.204-1.459-3.5-5l-1 2-1-4q-2.897 11.772-2 0 1.422-3.105 4.5-4.5-1.426-1.076-.5-2.5a77 77 0 0 0 7.5 0 32.4 32.4 0 0 0 4-5.5 4.93 4.93 0 0 0-3-.5q-.897 7.54-5 2 5.03-1.32 1.5-5-1.34 1.816-2.5 0a32 32 0 0 0 4-2.5q-18.46-1.843-24 14a29.8 29.8 0 0 0 6 7q-.343.598-1 .5a5734 5734 0 0 0-9-8 19.4 19.4 0 0 0-1-8q3.071-2.273 7-2.5a44 44 0 0 0 3-5.5q1.726-1.847 3.5 0a14.8 14.8 0 0 1 3.5-4q14.323 5.553 28-2 2.038 1.686 3 4 4.347 11.6 13 20.5 3.528.36 6 2.5l-1 2q-.814.09-1 1l12 13q3.621-2.115 5-6a25.1 25.1 0 0 0 7-7.5q-2.26-1.256-1.5-3.5 6.014-1.335 10-6A169 169 0 0 0 230.5 31q9.255 1.15 18.5 3.5a44.7 44.7 0 0 1 11.5-3 7.5 7.5 0 0 0 2 3 17.3 17.3 0 0 0 3.5-7q1.256-2.26 3.5-1.5-7.128 7.7 0 14.5" style="opacity:1"/><path fill="#7f5d38" d="M223.5 36.5q-1.063-1.356-3-1l2-5q1.812-1.1 4-1-.31 4.11-3 7" style="opacity:1"/><path fill="#013fc0" d="M205.5 30.5q2.587.514 1.5 3a15.86 15.86 0 0 1-5.5 6 6.85 6.85 0 0 0-1 4q0 1-1 1v-12q2.695-1.844 6-2" style="opacity:1"/><path fill="#331d10" d="M272.5 26.5q14.016 10.596 28 1h1v3h-1a59.3 59.3 0 0 0-8 10q18.974 1.499 38 1-20.24 1.74-41 .5a10.8 10.8 0 0 0-3-2.5 57.6 57.6 0 0 0-5.5 7q-2.176 2.946-5.5 4v-8q-3.429-.143-6-2 3.066-.797 5-3.5l-1-1q8.826-8.279-2-3.5-.442-3.352 1-6" style="opacity:1"/><path fill="#002b8f" d="M205.5 30.5q3.161-1.453 7-1-3.324 9.323-12 14a6.85 6.85 0 0 1 1-4 15.86 15.86 0 0 0 5.5-6q1.087-2.486-1.5-3" style="opacity:1"/><path fill="#00052b" d="M399.5 36.5v41q-2 6 0 12v2a5182 5182 0 0 0-3.5 41 100.7 100.7 0 0 1-24.5 14.5 651 651 0 0 1-20 23.5 92 92 0 0 1-5.5 10q-2.25 2.953-5.5 4h-8a113 113 0 0 1-14.5-9q-6.2 1.044-12.5 2-14.168.089-28.5 0-8.432 1.065-17 2-3.081-.868-6-1-8.432 1.065-17 2a56 56 0 0 0-6.5-1q-8.229 1.035-16.5 2-14.09-.058-28 0a2253 2253 0 0 1-17.5-2l-6 1a31983 31983 0 0 1-63.5-4 50 50 0 0 0-5.5 1q-6.3-.956-12.5-2a110.6 110.6 0 0 1-14.5 9h-8q-2.386-1.078-4.5-3a129 129 0 0 0-8-13A282 282 0 0 1 27.5 147 117.3 117.3 0 0 1 4 133.5a23 23 0 0 1-2-5 181 181 0 0 0-1.5-16q.907-3.55 1-7a95 95 0 0 0-2-8v-2q2-2 0-4v-3q2-5 0-10v-41q1 0 1 1a99.6 99.6 0 0 1 5.5 29q.196 4.307 3.5 7l-2 2q.186.91 1 1a25.2 25.2 0 0 0 4 4.5q-.835.575-1 1.5-5.392 2.025-4 8a3976 3976 0 0 0 2 34q8.64 4.86 17 10.5 5.856.432 11 .5l-2 6a306 306 0 0 0 14.5 15q6.015 9.045 12 18 9.41-4.923 16-13 2.988 1.242 4.5 4 .627 1.083 2 1.5a6278 6278 0 0 1 113.5 5.5q57.852-2.995 116.5-5.5 1.374-.417 2-1.5 3.243-5.796 6-1 5.555 4.074 11 8 1.657 1.65 4 2 10.101-17.88 25.5-32 .643-3.254-1.5-6a62.7 62.7 0 0 1 11-1.5 247 247 0 0 1 17-10.5 2205 2205 0 0 0 2-35q1.23-5.525-4-7-.166-.925-1-1.5a39 39 0 0 0 5-5.5q-3.74-2.622.5-5a137.2 137.2 0 0 1 6.5-33q-.258-1.487 1-2" style="opacity:1"/><path fill="#b18456" d="M15.5 39.5h3q1.602 1.401 4 1 8.715 1.485 18 1-4.525 5.205 2 7.5-10.5 1-21 0a7.3 7.3 0 0 0-3-2q6.017-.25 1.5-2.5a32.4 32.4 0 0 0-4.5 3 6.8 6.8 0 0 0 3 1.5q-.835.575-1 1.5h-3a44 44 0 0 0-3-2 19 19 0 0 0 3-5q-3.332-2.44 1-4" style="opacity:1"/><path fill="#8f6a45" d="M17.5 50.5q.165-.925 1-1.5a6.8 6.8 0 0 1-3-1.5 32.4 32.4 0 0 1 4.5-3q4.517 2.25-1.5 2.5a7.3 7.3 0 0 1 3 2q10.5 1 21 0-6.525-2.295-2-7.5h64q4.391 1.58 7-3 2.668 5.394-3 7.5-13.01.858-26 2l-6 2q-29.46.012-59 .5" style="opacity:1"/><path fill="#ddb276" d="M220.5 35.5q1.937-.356 3 1-5.424 12.176-17.5 18a4.93 4.93 0 0 0-.5 3 44 44 0 0 1-6-2q12.476-7.977 21-20" style="opacity:1"/><path fill="#7e5c39" d="M395.5 34.5h4v2q-1.258.513-1 2a125 125 0 0 0-7 10.5 270.7 270.7 0 0 1-45 1 43 43 0 0 0-5-1.5q-12.073 4.103-24-.5l-25-1a34 34 0 0 0-6-3.5q-4.984 2.157-1 5.5a179 179 0 0 1 17 7.5q1.488-.258 2 1-.09.814-1 1a627 627 0 0 0-16.5-6q-1.353.365-2.5 1a7.5 7.5 0 0 0-2-3q-3.29-.213-7 1v-1q3.324-1.054 5.5-4a57.6 57.6 0 0 1 5.5-7 10.8 10.8 0 0 1 3 2.5q20.76 1.24 41-.5 22.764.495 45-1h1q1.937.356 3-1h1q1.488.258 2-1h2q1.488.258 2-1h1q2.398.401 4-1 1.488.258 2-1 1.488.258 2-1" style="opacity:1"/><path fill="#956f47" d="M-.5 35.5h5q1.063 1.356 3 1 1.602 1.401 4 1 1.063 1.356 3 1h1v1q-4.332 1.56-1 4a19 19 0 0 1-3 5 44 44 0 0 1 3 2 21.5 21.5 0 0 1-7-1 92 92 0 0 0-7-11q0-1-1-1z" style="opacity:1"/><path fill="#3b210f" d="M176.5 30.5v1h-3q5.096 13.852 17.5 22 .877 2.247-1.5 3-2.472-2.14-6-2.5-8.653-8.9-13-20.5.465-1.857 1.5 0a14.4 14.4 0 0 1 2.5-5.5 9.5 9.5 0 0 1-1.5-2.5 4.46 4.46 0 0 1-1.5 2 9.86 9.86 0 0 1-1-6h3a4.93 4.93 0 0 1 .5-3 205 205 0 0 0 6.5 3l-5 8q.186.91 1 1" style="opacity:1"/><path fill="#6f5032" d="M176.5 31.5q8.427 14.928 23 24a44 44 0 0 0 6 2 576 576 0 0 1-6 5 31.4 31.4 0 0 1-5-4.5 17.6 17.6 0 0 0-6 .5l1-2q2.377-.753 1.5-3-12.404-8.148-17.5-22z" style="opacity:1"/><path fill="#301a0b" d="M398.5 38.5a137.2 137.2 0 0 0-6.5 33q-4.24 2.378-.5 5a39 39 0 0 1-5 5.5q.834.575 1 1.5-3.702 1.875-7-.5l5-7a3.65 3.65 0 0 1-1-1.5l5.5-9a49.2 49.2 0 0 0 0-14 67.7 67.7 0 0 1-10 12 8.4 8.4 0 0 0-.5 4q-6.957-.423-8 6v-11q-14.508.25-29-.5l-5-2.5a4.45 4.45 0 0 0-2 1.5q-10 1-20 0-4.594-6.298-12-6-.834.575-1 1.5a179 179 0 0 0-17-7.5q-3.984-3.343 1-5.5 3.195 1.45 6 3.5l25 1q11.927 4.603 24 .5 2.545.599 5 1.5 22.569 1.374 45-1a125 125 0 0 1 7-10.5" style="opacity:1"/><path fill="#9f774b" d="M114.5 48.5q-.406 2.895-3 4a62.7 62.7 0 0 1-13 3.5q7.192-5.434 16-7.5" style="opacity:1"/><path fill="#2f190a" d="M304.5 57.5q1.401 1.602 1 4-17.008.25-34-.5a34 34 0 0 0 6-3 2.43 2.43 0 0 0-2-.5 55.4 55.4 0 0 1 9-4 11 11 0 0 1 2.5-1 627 627 0 0 1 16.5 6q.91-.186 1-1" style="opacity:1"/><path fill="#ecca82" d="M284.5 53.5a55.4 55.4 0 0 0-9 4 46 46 0 0 1-7 3q-.658.098-1-.5a54.5 54.5 0 0 0 6-6.5q.5-1.5 2-2 3.71-1.213 7-1a7.5 7.5 0 0 1 2 3" style="opacity:1"/><path fill="#65482b" d="M123.5 51.5q4.461 3.957 9 8v1q-11.062-2.792-21-8 2.594-1.105 3-4 .549-1.792 2.5-2a15.9 15.9 0 0 0 6.5 5" style="opacity:1"/><path fill="#3c220f" d="M199.5 62.5q1.558 3.047 5 4-1.379 3.885-5 6l-12-13q.186-.91 1-1a17.6 17.6 0 0 1 6-.5 31.4 31.4 0 0 0 5 4.5" style="opacity:1"/><path fill="#0e0a08" d="M371.5 73.5q-.25 10.013.5 20 1.34-1.816 2.5 0-4.649 3.637-2 9l-1 2q-1.473 5.193-1 11-5.255-.556-9 3l-10 7q-.824-1.852 2-3 2.03-3.809 1-7.5a11.1 11.1 0 0 1 2-3.5q-3.45-3.492 0-6.5a12.5 12.5 0 0 1-5-4q2.968-3.022 5.5.5 1.942-6.396 7.5-10 3.585-4.49 0-8.5 2.687-5.43 0-11.5a7.3 7.3 0 0 0-3-2 21.9 21.9 0 0 1-6 7.5 3.94 3.94 0 0 0 1 2 6.98 6.98 0 0 0-2.5 3.5l-2-2q-1.694 2.462-4.5 3a41 41 0 0 0 4.5-6q1.032-1.248-.5-2-7.569 4.224-16 2-1.351-3.34-5-3-2.405-.282-4 1.5 4.572 3.085 5 8.5-1.132 11.892-7 22a523 523 0 0 1-6-20.5q.365-1.353 1-2.5.814-.09 1-1a1371 1371 0 0 0-17-2q-1.728-1.687-3 0h-26q3.294-1.698 9-2 .359-2.95-1-5.5 3.67-1.844.5-4.5-4.766-.62-7.5-4.5-2.418-1.08-4.5.5-1.756-2.09-4.5-2.5 1.374-.417 2-1.5a46 46 0 0 0 7-3 2.43 2.43 0 0 1 2 .5 34 34 0 0 1-6 3q16.992.75 34 .5.401-2.398-1-4-.512-1.258-2-1 .166-.925 1-1.5 7.406-.298 12 6 10 1 20 0a4.45 4.45 0 0 1 2-1.5l5 2.5q14.492.75 29 .5z" style="opacity:1"/><path fill="#e6ce77" d="M239.5 70.5q9.735-.522 19 2-.202 3.08 2 5-1.152 1.145-1.5 3-1.035-1.857-1.5 0l-2-1q-.255-1.983 1-3.5a7.3 7.3 0 0 1-3-2q-3.654-.186-7 1.5v-3a61 61 0 0 0-11 .5 19.6 19.6 0 0 1-2 3.5q-7.263-.488-13.5 4-.926-1.424.5-2.5 8.178-7.089 19-7.5" style="opacity:1"/><path fill="#523821" d="M.5 38.5a92 92 0 0 1 7 11 469 469 0 0 0 20 25 60.5 60.5 0 0 0 3 12q-2.227 2.394-4 9a7.25 7.25 0 0 0 2 2.5 9.2 9.2 0 0 0-2 4.5 53.8 53.8 0 0 0-16 2q-1.576 6.417-1 21a3976 3976 0 0 1-2-34 44 44 0 0 0 2-3q1.137 1.966 3 1.5l5-5q-1.373-.417-2-1.5 1.763.329 3-1l-4-5q-3.024-1.791-6 0-.814-.09-1-1l2-2q-3.304-2.693-3.5-7a99.6 99.6 0 0 0-5.5-29" style="opacity:1"/><path fill="#170f08" d="M88.5 86.5q-3.735 4.087-9 6-.64-6.603-4-12v-5q6.206-.531 12 1.5 3.508 4.33 1 9.5" style="opacity:1"/><path fill="#211b18" d="M273.5 53.5a54.5 54.5 0 0 1-6 6.5q.342.598 1 .5-.626 1.083-2 1.5 2.744.41 4.5 2.5 2.082-1.58 4.5-.5 2.734 3.88 7.5 4.5 3.17 2.656-.5 4.5 1.359 2.55 1 5.5-5.706.302-9 2-1.647 1.345 0 2.5a15.3 15.3 0 0 1 4.5 1.5 85 85 0 0 1 .5 13l-2 1q-3.528-2.178-1-6-2.837-15.747-18-20-9.265-2.522-19-2 3.703-1.225 8-1.5l-7-1a21.5 21.5 0 0 0 7.5-5.5q.5-2.32-1.5-4 1.827-1.954-1-3 1.783-1.393 4-1 .594-3.816-2-6.5 3.792-1.003 0-2.5-1.426 1.239-3 .5a27 27 0 0 1 7-2.5q1.046-2.827 3-1 .747-1.654 1-3 1.83 1.816 3.5 0 .663 3.267 3 2a106 106 0 0 1 9.5 5.5q2 3 0 6a2.43 2.43 0 0 0 2 .5" style="opacity:1"/><path fill="#2d180a" d="M15.5 83.5h-4q.165-.925 1-1.5a25.2 25.2 0 0 1-4-4.5q2.976-1.791 6 0l4 5q-1.237 1.329-3 1" style="opacity:1"/><path fill="#1c1714" d="M159.5 79.5q-1 0-1 1-7.726 3.726-10 12l-2 3q-1.004-5.024-5-8-6.937-7.58-17.5-8-2.979.103-4.5 2-5.182 2.235-8.5 7-1.104 5.355-3.5 10-2.795-3.308-7-4-1.064-1.356-3-1l-8-2h3l4-1q8.698-1.844 8-11 3.154-2.22 0-3.5 2.09-1.757 2.5-4.5l1 4 4-4q.621.685 1.5 1 3.716-7.205 12-6.5a41.4 41.4 0 0 0 8-4q-.343-.598-1-.5v-2q.657.098 1-.5a29.8 29.8 0 0 1-6-7q5.54-15.843 24-14a32 32 0 0 1-4 2.5q1.16 1.816 2.5 0 3.53 3.68-1.5 5 4.103 5.54 5-2a4.93 4.93 0 0 1 3 .5 32.4 32.4 0 0 1-4 5.5 77 77 0 0 1-7.5 0q-.926 1.424.5 2.5-3.078 1.395-4.5 4.5-.897 11.772 2 0l1 4 1-2q.296 3.541 3.5 5l-1 2q5.817 2.077 0 3.5 3.49 2.723 7.5.5 2.74.766.5 2.5h4q-2.053 3.36 1.5 5.5a26 26 0 0 1 5-5q.466 1.864-1.5 3a3.65 3.65 0 0 0 1 1.5 41 41 0 0 1-6 2.5" style="opacity:1"/><path fill="#7d5f27" d="M98.5 72.5q4.078 2.58 6 7 .698 9.156-8 11a41 41 0 0 0 4.5-6q1.194-3.807-.5-7a16.3 16.3 0 0 1-2-5" style="opacity:1"/><path fill="#e9e390" d="M159.5 79.5q12.15-.96 20 8-1.12 5.54-4 0-1.89 2.78 0 5.5a2.43 2.43 0 0 1-2 .5q-1.875-5.862-7-9 .166-.925 1-1.5a128 128 0 0 0-9-2.5q0-1 1-1" style="opacity:1"/><path fill="#9a8349" d="M274.5 80.5h23a238 238 0 0 1-22 1.5q3.312.285 6 1.5a525 525 0 0 1-2 14 85 85 0 0 0-.5-13 15.3 15.3 0 0 0-4.5-1.5q-1.647-1.155 0-2.5" style="opacity:1"/><path fill="#c0a359" d="M347.5 83.5q-3.981 6.984-6.5 15a199 199 0 0 0-9.5 16 72 72 0 0 1 8.5-21 32.4 32.4 0 0 1 1.5-6q-1.827-1.954 1-3-2.58-2.15-6-2.5l-2-4q.342-.598 1-.5 8.431 2.224 16-2 1.532.752.5 2a41 41 0 0 1-4.5 6" style="opacity:1"/><path fill="#0b0707" d="M132.5 61.5q.657-.098 1 .5a41.4 41.4 0 0 1-8 4q-8.284-.705-12 6.5a3.65 3.65 0 0 1-1.5-1l-4 4-1-4q-.41 2.743-2.5 4.5 3.154 1.28 0 3.5-1.922-4.42-6-7l-7-2q-10.267-1.86-21 0a71 71 0 0 0-9-3q-1.683-2.17-4.5-3A166 166 0 0 1 34.5 67l-2 2A62 62 0 0 1 34 79.5a45.3 45.3 0 0 1 2.5 8 4.45 4.45 0 0 1 2 1.5 21.4 21.4 0 0 1-5 0l1 1-2 8q1.305 6.719 0 13.5a25 25 0 0 0-.5-7q-2.034-1.32-4.5-1 0-1-1-1a9.2 9.2 0 0 1 2-4.5 7.25 7.25 0 0 1-2-2.5q1.773-6.606 4-9a60.5 60.5 0 0 1-3-12 55 55 0 0 1-1-12q15.009.25 30-.5l5-2.5a15.7 15.7 0 0 0 4 2.5 72.5 72.5 0 0 0 17 0q5.282-6.395 13-7-3.63 2.263-3 6.5z" style="opacity:1"/><path fill="#f7e585" d="m91.5 70.5 7 2a16.3 16.3 0 0 0 2 5q-2.455 1.32-5.5 2a2571 2571 0 0 0-6-6 4.93 4.93 0 0 1-.5-3z" style="opacity:1"/><path fill="#eee587" d="M141.5 87.5a5.6 5.6 0 0 0 1 3 31 31 0 0 0-2 2q-4.594-3.807-10-9.5a33.7 33.7 0 0 0-11-1.5q1.521-1.897 4.5-2 10.563.42 17.5 8" style="opacity:1"/><path fill="#0b0808" d="M49.5 76.5q4.14 4.138 10 4h5v10q-1.5.5-2 2a2.43 2.43 0 0 1-2-.5q1.84-2.38-1-4a62 62 0 0 1-10-4.5q-.31-3.768 0-7" style="opacity:1"/><path fill="#e3ca72" d="M297.5 80.5h3l2 5v4a120 120 0 0 1-5-4q1.144-1.152 3-1.5a71 71 0 0 0-9-1.5q-3.574-.208-6 2l-4-1q-2.688-1.215-6-1.5a238 238 0 0 0 22-1.5" style="opacity:1"/><path fill="#7b5533" d="M387.5 83.5q5.23 1.475 4 7-1.083-.627-1.5-2l-1 1q-.26 8.274-1.5 16v-4a61.3 61.3 0 0 0-15 1q-2.649-5.363 2-9-1.16-1.816-2.5 0-.75-9.987-.5-20 1.043-6.423 8-6a8.4 8.4 0 0 1 .5-4 67.7 67.7 0 0 0 10-12 49.2 49.2 0 0 1 0 14l-5.5 9a3.65 3.65 0 0 0 1 1.5l-5 7q3.298 2.375 7 .5" style="opacity:1"/><path fill="#e7c76d" d="M303.5 80.5q8.424.937 17 2-.186.91-1 1-3.884-.059-6 3-1.875.116-2.5 2l-3-3q-.598.342-.5 1-1.995-2.988-4-6" style="opacity:1"/><path fill="#4a3516" d="M330.5 74.5a30 30 0 0 0 3.5 6q.747 4.473.5 9-.708-3.047-3-5-.428-5.415-5-8.5 1.595-1.782 4-1.5" style="opacity:1"/><path fill="#c3a45e" d="M194.5 96.5v-11q-7.078-1.38-10 5-.654-8.846 8.5-8l3.5 1q-.92 6.7-2 13" style="opacity:1"/><path fill="#946c43" d="M11.5 83.5h4q.627 1.083 2 1.5l-5 5q-1.863.466-3-1.5a44 44 0 0 1-2 3q-1.392-5.975 4-8" style="opacity:1"/><path fill="#7e6334" d="M64.5 90.5v-10h-5q2.05-2.775 5-1 1.962 5.722 0 11" style="opacity:1"/><path fill="#745820" d="M75.5 80.5q3.36 5.397 4 12-1.812-1.1-4-1z" style="opacity:1"/><path fill="#ead987" d="M204.5 80.5q-.129 1.495 1 2.5a20.4 20.4 0 0 0-5.5 1.5l-1 29q-4.236 1.977-7.5 5h-1v-2a18.5 18.5 0 0 0 3.5-2q.578-9.305.5-18 1.08-6.3 2-13l-3.5-1q-9.154-.846-8.5 8-1.926-4.899 0-12 9.676 2.86 20 2" style="opacity:1"/><path fill="#f3f1c3" d="M233.5 96.5v-14q.607-1.575 2 0a57 57 0 0 1 3 6.5q-.652 4.595-2.5.5l-.5 2.5q1.767 1.385 2.5 4.5-2.121-1.37-4.5 0" style="opacity:1"/><path fill="#ba9c56" d="M255.5 79.5h-2q-3.968-2.715-9-3-.25 19.007.5 38l2.5 2.5q-6.402.047-12 3 4.473.747 9 .5a467 467 0 0 1-9 2q34.822 2.626 36-32h-4q.606-1.884 2-3.5-.105-1.148-1-1.5-2.468-5.468-8-8-2.202-1.92-2-5 15.164 4.253 18 20-2.528 3.822 1 6l-1 2q-7.764 21.464-31 25.5-8.826.82-17-1.5 4.868.31 6-4.5a2.43 2.43 0 0 0-2-.5 96.3 96.3 0 0 0 1-19 159 159 0 0 1 1.5 18 21.5 21.5 0 0 0 5-6q.558-11.002-.5-22-.273-6.846 2-13-3.579-.362-6 2-.423-1.917-2-3a19.6 19.6 0 0 0 2-3.5 61 61 0 0 1 11-.5v3q3.346-1.686 7-1.5a7.3 7.3 0 0 0 3 2q-1.255 1.517-1 3.5" style="opacity:1"/><path fill="#502c10" d="M258.5 82.5q1.46 2.46 4 4l1 4q-1.314.195-2-1-2.28-3.243-3-7" style="opacity:1"/><path fill="#f7ef9f" d="M260.5 77.5q5.532 2.532 8 8a19.8 19.8 0 0 0-6 1q-2.54-1.54-4-4l-1-2q.465-1.857 1.5 0 .348-1.855 1.5-3" style="opacity:1"/><path fill="#5f3613" d="M253.5 79.5h2l2 1 1 2q-2.901-.915-5-3" style="opacity:1"/><path fill="#f9f8d8" d="M268.5 85.5q.895.352 1 1.5-1.394 1.616-2 3.5.634 3.422-2 5 .147-3.08-2-5l-1-4a19.8 19.8 0 0 1 6-1" style="opacity:1"/><path fill="#553815" d="M289.5 85.5q3.842-1.9 8 0a120 120 0 0 0 5 4q-1.651 1.647-4 .5-2.534-5.946-9-4.5" style="opacity:1"/><path fill="#191413" d="M253.5 79.5q2.099 2.085 5 3 .72 3.757 3 7 .686 1.195 2 1 1.749 15.776-10 26-4.457 1.99-9 4a41 41 0 0 1-9-.5q5.598-2.953 12-3l-2.5-2.5a722 722 0 0 1-.5-38q5.032.285 9 3" style="opacity:1"/><path fill="#f6ed9a" d="m281.5 83.5 4 1q.25 15.009-.5 30a69 69 0 0 0-6.5 3 5.73 5.73 0 0 1-3 1q1.863-2.625 4.5-5 1.218-6.284-.5-12-1.063-1.356-3-1l1-2 2-1q1.074-6.846 2-14" style="opacity:1"/><path fill="#d0b165" d="M158.5 80.5q4.381 1.04 9 2.5-.834.575-1 1.5-6.141-1.193-9.5 4-1.88 13.488 6.5 24-2.322.481-2 3 9.226 2.987 14.5-5 .743-2.96.5-6h3q1.244-4.433-1-9 .843-6.895 3.5-1a2.43 2.43 0 0 0 .5-2q1.259 1.712 2 4-2.684 28.323-29 18.5-6.314-6.902-9-15.5 2.15-3.087 2-7 2.274-8.274 10-12" style="opacity:1"/><path fill="#f3eba3" d="M233.5 100.5q-1.577-1.083-2-3l2-1q2.379-1.37 4.5 0-.733-3.115-2.5-4.5l.5-2.5q1.848 4.095 2.5-.5a57 57 0 0 0-3-6.5q-1.393-1.575-2 0-2.385-.192-4-2a9.86 9.86 0 0 1 6-1q2.421-2.362 6-2-2.273 6.154-2 13 1.058 10.998.5 22a21.5 21.5 0 0 1-5 6 159 159 0 0 0-1.5-18" style="opacity:1"/><path fill="#e6cd7a" d="M330.5 74.5q3.649-.34 5 3-.658-.098-1 .5l2 4q3.42.35 6 2.5-2.827 1.046-1 3a32.4 32.4 0 0 0-1.5 6 72 72 0 0 0-8.5 21q-2.276.016-3.5 2-1.554-2.699-.5-5a275 275 0 0 0 7-22 41 41 0 0 0-.5-9 30 30 0 0 1-3.5-6" style="opacity:1"/><path fill="#988349" d="m89.5 91.5 8 2a36.9 36.9 0 0 1-12-1q1.783-1.393 4-1" style="opacity:1"/><path fill="#f0d675" d="M88.5 86.5q1.106 2.823 3.5 2 .725 1.422.5 3h-3q-2.217-.393-4 1a36.9 36.9 0 0 0 12 1q1.936-.356 3 1 4.413 3.42 5 9-1.983-.255-3.5 1a166 166 0 0 0-11.5-9q-3.302-1.92-6.5 0a7.3 7.3 0 0 1-2-3q-1.088 2.487-3.5 1.5.835-.575 1-1.5 5.265-1.913 9-6" style="opacity:1"/><path fill="#211b18" d="M231.5 97.5q.423 1.917 2 3-2.832 3.732-2 9-3.816.594-6.5-2l-1 1a15 15 0 0 0-3.5-3q-.91.186-1 1h-4q1.144-1.152 3-1.5-2.972-.907-1-3-2.744-2.307-4.5 1.5-3.053-3.618-3 2-1.391-2.752-3.5-1-.835-3.219-1-6l-1-2q2.02-1.007 3.5 0l1-2q2.775 3.693 3.5-1.5 2.44.292 5 0-1.73-1.37.5-2.5a7.3 7.3 0 0 0 2 3q.926-1.424-.5-2.5 5.41-2.197 2-6 2.41.028 5 .5a53 53 0 0 0 1.5 7q2.525 2.08 3.5 5" style="opacity:1"/><path fill="#cbae64" d="M53.5 67.5a19.2 19.2 0 0 0-1 6h4q.352.895 1.5 1 4.566-1.922 3.5-7a71 71 0 0 1 9 3q10.733-1.86 21 0h-3a4.93 4.93 0 0 0 .5 3q2.997 2.988 6 6 3.045-.68 5.5-2 1.694 3.193.5 7a41 41 0 0 1-4.5 6l-4 1a4.93 4.93 0 0 0-.5-3q-2.394.823-3.5-2 2.508-5.17-1-9.5-5.794-2.031-12-1.5v16q2.188-.1 4 1-.165.925-1 1.5 2.412.987 3.5-1.5a7.3 7.3 0 0 0 2 3q3.198-1.92 6.5 0a166 166 0 0 1 11.5 9q1.517-1.255 3.5-1-.587-5.58-5-9 4.205.692 7 4v1q-.52 11.193-7 20a47.9 47.9 0 0 1-13 6.5q-13.74 1.383-27.5 2.5a11.5 11.5 0 0 1-5.5-1.5q-7.002-5.6-1-11.5-.744 11.314 9 7 2.2-1.27 2.5-4a64.3 64.3 0 0 0 0-16q-4.26-1.509-7.5 0 3.074-4.575 8-7-1.032-2.032-3-3 .5-1.5 2-2 1.962-5.278 0-11-2.95-1.775-5 1-5.86.138-10-4-1.262-6.113 4-9" style="opacity:1"/><path fill="#5a4318" d="M53.5 67.5q2.1.706 4 2a6.85 6.85 0 0 0-1 4h-4q.025-3.097 1-6" style="opacity:1"/><path fill="#322015" d="M391.5 90.5a2205 2205 0 0 1-2 35 145 145 0 0 0-.5-17q-1.248 23.979-1.5 0v-3q1.24-7.726 1.5-16l1-1q.417 1.373 1.5 2" style="opacity:1"/><path fill="#16120e" d="M166.5 84.5q5.125 3.138 7 9 3.954 9.171-.5 18-4.33 3.508-9.5 1-8.38-10.512-6.5-24 3.359-5.193 9.5-4" style="opacity:1"/><path fill="#bfa25a" d="M297.5 85.5q-4.158-1.9-8 0-1.473 5.193-1 11 6.615.705 12-3-.003 5.248-3.5 10a4.93 4.93 0 0 1-.5-3h-8a46.8 46.8 0 0 0 1 13q5.693 2.512 12.5 3 1.224-1.984 3.5-2-.126 4.773-4 7v-3a168 168 0 0 0-23-1 69 69 0 0 1 6.5-3q.75-14.991.5-30 2.426-2.208 6-2 4.548.459 9 1.5-1.856.348-3 1.5" style="opacity:1"/><path fill="#d7bb6f" d="M119.5 81.5a33.7 33.7 0 0 1 11 1.5q5.406 5.693 10 9.5 1.542.86 3 1-1.783 1.393-4 1 .13 3.265 2 6a6.8 6.8 0 0 1-3 1.5q1.926 1.946-.5 3.5-.315-2.337-1.5-4-.182-10.113-8-16.5a12.9 12.9 0 0 0-5-.5q-4 1-5 5-1.819 8.406 1 17-1.968.968-3 3l6 6q-.513 1.257-2 1-8.224-4.222-11-13 .514-2.975-2-4v-1q2.396-4.645 3.5-10 3.318-4.765 8.5-7" style="opacity:1"/><path fill="#402304" d="M123.5 84.5q-4.395 5.688-4 13-1.46-3.672-1-8 1-4 5-5" style="opacity:1"/><path fill="#80642f" d="M148.5 92.5q.15 3.913-2 7l-2 5q-.652-5.007 2-9z" style="opacity:1"/><path fill="#15110f" d="M123.5 84.5q2.549-.24 5 .5 7.818 6.387 8 16.5a30.5 30.5 0 0 1-1.5 9q-1.896 3.16-5.5 3h-2q-6.377-6.754-8-16-.395-7.312 4-13" style="opacity:1"/><path fill="#c7a75e" d="m204.5 96.5 1 2q-.925.165-1.5 1a49.2 49.2 0 0 0 0 14 35.6 35.6 0 0 1 4.5 4q-8.42-.372-17 1 3.264-3.023 7.5-5l1-29a20.4 20.4 0 0 1 5.5-1.5q-1.129-1.005-1-2.5 5.77.18 11-2a43.1 43.1 0 0 1-1 13q-2.634-6.82-10-6z" style="opacity:1"/><path fill="#ba9c53" d="M319.5 83.5a11 11 0 0 0-1 2.5 523 523 0 0 0 6 20.5 29.6 29.6 0 0 1 3 5q-1.054 2.301.5 5 1.224-1.984 3.5-2a137 137 0 0 0-6 15 39.6 39.6 0 0 1 1-11.5 737 737 0 0 0-13-31.5q2.116-3.059 6-3" style="opacity:1"/><path fill="#c8a85e" d="M141.5 87.5q3.996 2.976 5 8-2.652 3.993-2 9-6.593 17.297-24 12 1.487.257 2-1a11.6 11.6 0 0 0 7 .5q1.647-1.155 0-2.5 3.604.16 5.5-3a30.5 30.5 0 0 0 1.5-9q1.185 1.663 1.5 4 2.426-1.554.5-3.5a6.8 6.8 0 0 0 3-1.5q-1.87-2.734-2-6 2.217.393 4-1-1.458-.14-3-1a31 31 0 0 1 2-2 5.6 5.6 0 0 1-1-3" style="opacity:1"/><path fill="#71512f" d="M26.5 102.5q1 0 1 1-.375 2.133-2.5 3-4.225-.634-8.5-1-.615 1.143-.5 3-3.414-3.938-5.5 1 1.425 3.137 3 6.5a72 72 0 0 0-2 5.5q-.733 2.243-2 4-.576-14.583 1-21a53.8 53.8 0 0 1 16-2" style="opacity:1"/><path fill="#191412" d="M79.5 117.5q-1.886-2.802 1-5-1.655-6.985-5-13-.24-2.55.5-5 6.197 2.145 12.5 4.5 8.504 4.222 5.5 13.5-2.586 6.804-10 7-3.012.29-4.5-2" style="opacity:1"/><path fill="#957836" d="M118.5 89.5q-.46 4.328 1 8 1.623 9.246 8 16a10.1 10.1 0 0 1-4-1.5 35.5 35.5 0 0 0-4-5.5q-2.819-8.594-1-17" style="opacity:1"/><path fill="#685931" d="M263.5 90.5q2.147 1.92 2 5 .212 14.237-12 21 11.749-10.224 10-26" style="opacity:1"/><path fill="#d39f66" d="M387.5 105.5v3q-9.243-.01-16-4l1-2a61.3 61.3 0 0 1 15-1z" style="opacity:1"/><path fill="#4f3414" d="M300.5 80.5q1.272-1.687 3 0 2.005 3.012 4 6a1658 1658 0 0 0 17 43q-2.276-.016-3.5-2a631 631 0 0 1-15-37q-1.295-3.913-3.5-5z" style="opacity:1"/><path fill="#f4e081" d="M119.5 106.5a35.5 35.5 0 0 1 4 5.5 10.1 10.1 0 0 0 4 1.5h2q1.647 1.345 0 2.5-3.577.835-7-.5l-6-6q1.032-2.032 3-3" style="opacity:1"/><path fill="#ead880" d="M179.5 87.5q1.856 2.198 3 5a2.43 2.43 0 0 1-.5 2q-2.657-5.895-3.5 1 2.244 4.567 1 9h-3a18.5 18.5 0 0 1-.5 6q-5.274 7.987-14.5 5-.322-2.519 2-3 5.17 2.508 9.5-1 4.454-8.829.5-18a2.43 2.43 0 0 0 2-.5q-1.89-2.72 0-5.5 2.88 5.54 4 0" style="opacity:1"/><path fill="#f4e383" d="M267.5 90.5h4q-1.178 34.626-36 32a467 467 0 0 0 9-2q4.543-2.01 9-4 12.212-6.763 12-21 2.634-1.578 2-5" style="opacity:1"/><path fill="#52340f" d="M107.5 99.5q2.514 1.025 2 4-1.263 5.935-3.5 12-2.176 2.946-5.5 4 6.48-8.807 7-20" style="opacity:1"/><path fill="#775432" d="M371.5 104.5q6.757 3.99 16 4 .252 23.979 1.5 0 .749 8.486.5 17-1.587-1.65-2.5-4-.574.834-1.5 1 .197-1.314-1-2a76 76 0 0 1-11-4q-2.183 1.335-4 0a200 200 0 0 1-6 3q-1.488.257-2-1 3.745-3.556 9-3-.473-5.807 1-11" style="opacity:1"/><path fill="#523a22" d="M27.5 103.5q2.466-.32 4.5 1 .745 3.465.5 7 .195 1.314-1 2-2.257-3.946-2 1 1.937-.356 3 1a48.3 48.3 0 0 0-18 5q-1.195.686-1 2l-2-1a72 72 0 0 1 2-5.5 593 593 0 0 1-3-6.5q2.086-4.938 5.5-1-.115-1.857.5-3 4.275.366 8.5 1 2.125-.867 2.5-3" style="opacity:1"/><path fill="#71551f" d="M75.5 99.5q3.345 6.015 5 13-2.886 2.198-1 5h-4q-.306-2.835 2-4.5a119 119 0 0 1-2-13.5" style="opacity:1"/><path fill="#e6c66b" d="M307.5 107.5v1a44 44 0 0 0-2 6q-2.276.016-3.5 2-6.807-.488-12.5-3 5.071.06 10-1a4.93 4.93 0 0 0 3-.5q2.375-2.637 5-4.5" style="opacity:1"/><path fill="#5e502b" d="M279.5 101.5q1.718 5.716.5 12-2.637 2.375-4.5 5-1.763.329-3-1a13.27 13.27 0 0 0 5.5-5q.36-5.628 1.5-11" style="opacity:1"/><path fill="#1e1816" d="M106.5 144.5a558 558 0 0 0-28-1h-13a17.9 17.9 0 0 1-4-6q-.015-2.276-2-3.5 6.828-1.842 13.5-.5 4.303-4.46 10-2 6.712-3.216 13-5l4 2a58.3 58.3 0 0 1 7.5-10.5 25 25 0 0 1 7-.5q.691 3.624 4 5.5-.901 2.407-3 4l2 1q-2 1 0 2a4.93 4.93 0 0 1-3 .5q-.255 1.983 1 3.5-2.316.434-4 2a44 44 0 0 1 3 5.5q-4.937-.481-10 1.5 1.373.417 2 1.5" style="opacity:1"/><path fill="#a68843" d="M53.5 115.5h3q-.11 6.33 6 7-9.744 4.314-9-7" style="opacity:1"/><path fill="#f7ed79" d="M74.5 118.5q4.226.451 2 4-3.85 2.03-7-1 2.79-1.238 5-3" style="opacity:1"/><path fill="#c79865" d="M28.5 128.5q-4.325 2.06-7-2a40.6 40.6 0 0 1 9.5-9q2.15.645 3.5 2.5a211 211 0 0 1-6 8.5" style="opacity:1"/><path fill="#14100e" d="M351.5 125.5a204 204 0 0 0-17 17h-9a61 61 0 0 1-11-.5q10.041-4.251 21-6 1.426-1.077.5-2.5-5.708-1.264-11 0-9.231-4.986-12-15l-1 3q-3.967-5.93-4.5-13v-1q-1.651-1.647-4-.5a55 55 0 0 0-4 5.5 45 45 0 0 1-10 1 46.8 46.8 0 0 1-1-13h8a4.93 4.93 0 0 0 .5 3q3.497-4.752 3.5-10-5.385 3.705-12 3-.473-5.807 1-11 6.466-1.446 9 4.5 2.349 1.147 4-.5v-4q2.205 1.087 3.5 5a631 631 0 0 0 15 37q1.224 1.984 3.5 2h1a137 137 0 0 1 6-15 199 199 0 0 1 9.5-16q2.519-8.016 6.5-15 2.806-.538 4.5-3l2 2a6.98 6.98 0 0 1 2.5-3.5 3.94 3.94 0 0 1-1-2 21.9 21.9 0 0 0 6-7.5 7.3 7.3 0 0 1 3 2q2.687 6.07 0 11.5 3.585 4.01 0 8.5-5.558 3.604-7.5 10-2.532-3.522-5.5-.5a12.5 12.5 0 0 0 5 4q-3.45 3.008 0 6.5a11.1 11.1 0 0 0-2 3.5q1.03 3.691-1 7.5-2.824 1.148-2 3" style="opacity:1"/><path fill="#f2e59b" d="M313.5 86.5a737 737 0 0 1 13 31.5 39.6 39.6 0 0 0-1 11.5h-1a1658 1658 0 0 1-17-43q-.098-.658.5-1l3 3q.625-1.884 2.5-2" style="opacity:1"/><path fill="#6f5d31" d="M307.5 107.5q-2.625 1.863-5 4.5a4.93 4.93 0 0 1-3 .5 55 55 0 0 1 4-5.5q2.349-1.147 4 .5" style="opacity:1"/><path fill="#776432" d="M331.5 84.5q2.292 1.953 3 5a275 275 0 0 1-7 22 29.6 29.6 0 0 0-3-5q5.868-10.108 7-22" style="opacity:1"/><path fill="#161210" d="M205.5 98.5q.165 2.781 1 6 2.109-1.752 3.5 1-.053-5.618 3-2 1.756-3.807 4.5-1.5-1.972 2.093 1 3-1.856.348-3 1.5-2.893-.404-5 1.5a4.46 4.46 0 0 1 2 1.5q-2.454 4.707 2 7 1.739 2.815 5 1.5 5.553-3.17 3-8.5a6.55 6.55 0 0 0-3-3q.09-.814 1-1a15 15 0 0 1 3.5 3l1-1q2.684 2.594 6.5 2-.832-5.268 2-9a96.3 96.3 0 0 1-1 19 103 103 0 0 1-10 1.5q2.344 2.92 6 3.5 8.174 2.32 17 1.5 23.236-4.036 31-25.5 1.937-.356 3 1a76.4 76.4 0 0 0-1.5 11 13.27 13.27 0 0 1-5.5 5q1.237 1.329 3 1a5.73 5.73 0 0 0 3-1 168 168 0 0 1 23 1v3q4.137 2.2-1 2v3a18.5 18.5 0 0 0-6 .5q2.744.41 4.5 2.5l1-1q1.281 6.477 6 4 .426 3.578 3 2-1.34 4.404-5.5 7.5 3.312.286 6 1.5a903 903 0 0 1-30 1.5 34.7 34.7 0 0 1-7.5 6.5q-1.062-1.321-2.5-2-.467-1.467-2-2l-5 4a31.2 31.2 0 0 1-6-4.5q-10.27-1.231-20 .5a96.3 96.3 0 0 0-19 1 25 25 0 0 1-7-.5l-10-10q-1.405-1.038-2 .5a71 71 0 0 0-10 10h-11q-2.688-1.214-6-1.5 5.939.524 8-5-1.237-2.532-3-.5a4.46 4.46 0 0 1-1.5-2q-.175 4.693-4.5 3.5a9.5 9.5 0 0 0 2.5-1.5q.747-4.975.5-10a6.85 6.85 0 0 1 4 1q1.296-2.545 4-3.5-1.291-3.481 3-3.5-1.875-3.702.5-7l1 1 1-3q1.065 2.21 3.5 2h1q8.58-1.372 17-1a35.6 35.6 0 0 0-4.5-4 49.2 49.2 0 0 1 0-14q.575-.835 1.5-1" style="opacity:1"/><path fill="#efd474" d="M232.5 119.5a2.43 2.43 0 0 1 2 .5q-1.132 4.81-6 4.5-3.656-.58-6-3.5a103 103 0 0 0 10-1.5" style="opacity:1"/><path fill="#c1a05a" d="M222.5 109.5q2.553 5.33-3 8.5-3.261 1.315-5-1.5 3.079-4.58 8-7" style="opacity:1"/><path fill="#ecda85" d="M215.5 106.5h4a6.55 6.55 0 0 1 3 3q-4.921 2.42-8 7-4.454-2.293-2-7a4.46 4.46 0 0 0-2-1.5q2.107-1.904 5-1.5" style="opacity:1"/><path fill="#a47a4f" d="M385.5 122.5a122 122 0 0 1-13 7 67.2 67.2 0 0 0-15-1 46 46 0 0 0 1 12.5 18.7 18.7 0 0 1-6 6.5 60.4 60.4 0 0 0-7-9.5 14.5 14.5 0 0 1 4-5q-.343-.598-1-.5a138 138 0 0 1 15-13 200 200 0 0 0 6-3q1.817 1.335 4 0a76 76 0 0 0 11 4q1.197.686 1 2" style="opacity:1"/><path fill="#7e5d3a" d="M32.5 115.5a232 232 0 0 1 29 22 17.9 17.9 0 0 0 4 6q-2.398-.401-4 1-2.456 1.807-1 4-3.324 1.054-5.5 4 1.566-9.359-7.5-5.5 1.857 1.035 0 1.5a46 46 0 0 1-6-5.5 18.5 18.5 0 0 0-6-.5l2-6q2.339-3.162 4-7a43.1 43.1 0 0 0-13-1q3.105-4.178 6-8.5-1.35-1.855-3.5-2.5a40.6 40.6 0 0 0-9.5 9l-8-4q-.195-1.314 1-2a48.3 48.3 0 0 1 18-5" style="opacity:1"/><path fill="#2f1909" d="m11.5 121.5 2 1 8 4q2.675 4.06 7 2a43.1 43.1 0 0 1 13 1q-1.661 3.838-4 7a183 183 0 0 1-11-.5 247 247 0 0 0-17-10.5q1.267-1.757 2-4" style="opacity:1"/><path fill="#1d1917" d="M307.5 108.5q.533 7.07 4.5 13l1-3q2.769 10.014 12 15 5.292-1.264 11 0 .926 1.423-.5 2.5-10.959 1.749-21 6 5.477.748 11 .5-7.71 1.482-16 1-2.688-1.214-6-1.5 4.16-3.096 5.5-7.5-2.574 1.578-3-2-4.719 2.477-6-4l-1 1q-1.756-2.09-4.5-2.5a18.5 18.5 0 0 1 6-.5v-3q5.137.2 1-2 3.874-2.227 4-7a44 44 0 0 1 2-6" style="opacity:1"/><path fill="#5a4026" d="M361.5 118.5q.512 1.257 2 1a138 138 0 0 0-15 13l-11 10q-1.5 2-3 0a204 204 0 0 1 17-17z" style="opacity:1"/><path fill="#1e1815" d="M190.5 116.5v2q-2.435.21-3.5-2l-1 3-1-1q-2.375 3.298-.5 7-4.291.019-3 3.5-2.704.955-4 3.5a6.85 6.85 0 0 0-4-1 50.5 50.5 0 0 1-.5 10 9.5 9.5 0 0 1-2.5 1.5q4.325 1.193 4.5-3.5a4.46 4.46 0 0 0 1.5 2q1.763-2.032 3 .5-2.061 5.524-8 5 3.312.286 6 1.5h-11a128 128 0 0 0-22-1q-2.82-.406-4 2l-2 1q-1.147.635-2.5 1a26 26 0 0 0-4.5-4l-5 4a34.8 34.8 0 0 1-7-7q-.627-1.083-2-1.5a26.8 26.8 0 0 0 7.5-3.5q1 2 2 0l1 2a87 87 0 0 1 6.5-4q4.548 3.99 2-2 2.488-5.371 3.5 0 .984-5.253 4 0 3.163-.803 1.5-3a15 15 0 0 0 3-3.5l-2-1a33.8 33.8 0 0 1 5-6q-1.72-2.856 1.5-4.5 6.045 1.83 12 6a9.5 9.5 0 0 1 2.5-1.5l-1-1q9.213-3.354 17-9 .222-5.014 5-6-1.794-.981 0-1.5 1.5.5 2 2-3.668 2.224 1 3.5-3.103.486-1 2.5-7.832 1.686 0 2.5-1.857 1.035 0 1.5" style="opacity:1"/><path fill="#c99662" d="M348.5 132.5q.657-.098 1 .5a14.5 14.5 0 0 0-4 5 60.4 60.4 0 0 1 7 9.5l-4 5q-3.479-2.84-8-4 0-1-1-1a16.3 16.3 0 0 1-2-5z" style="opacity:1"/><path fill="#d09d64" d="M198.5 138.5q1.488 10.722 1 22-3.354-1.333-6-4a32 32 0 0 1-2.5 4q-.738-1.574.5-3-4.521-3.61-3-9a71 71 0 0 1 10-10" style="opacity:1"/><path fill="#64482c" d="M198.5 138.5q.595-1.538 2-.5l10 10q3.465.745 7 .5-2.647 1.442-6 1a499 499 0 0 0-3 12.5q2.96.743 6 .5-1.423.978-3.5 1a352 352 0 0 1-11.5-2v-1q.488-11.278-1-22" style="opacity:1"/><path fill="#2c1709" d="M389.5 125.5a247 247 0 0 0-17 10.5 62.7 62.7 0 0 0-11 1.5q2.143 2.746 1.5 6-15.399 14.12-25.5 32-.237-4.568 2-8.5-6-1-12 0a54.5 54.5 0 0 1 6 6.5q-5.445-3.926-11-8-2.757-4.796-6 1a4901 4901 0 0 0-117 5q-58.498-2.63-117-5-1.512-2.758-4.5-4-6.59 8.077-16 13-5.985-8.955-12-18a306 306 0 0 1-14.5-15 18.5 18.5 0 0 1 6 .5 46 46 0 0 0 6 5.5 185 185 0 0 1 11 15 33.2 33.2 0 0 0 14 .5l-12-14q.342-.598 1-.5a264 264 0 0 1 20 8.5q3.97.746 8 .5h3q5.193 1.473 11 1a65.3 65.3 0 0 1 20 4q8.777.784 17-2h17q20.883 3.514 42 0 5.715 1.092 11.5 2 2.077-.022 3.5-1 14.06.377 28-1a97 97 0 0 1 24 2 20.7 20.7 0 0 0 5-1h3q.09.814 1 1 2.289-.741 4-2a68 68 0 0 1 13-2 273 273 0 0 0 25-1.5 333 333 0 0 0 22-10.5q1 0 1 1a141 141 0 0 0-13 15q6.033 1.45 12 1.5a173 173 0 0 1 9-12.5l4-5a18.7 18.7 0 0 0 6-6.5 46 46 0 0 1-1-12.5 67.2 67.2 0 0 1 15 1 122 122 0 0 0 13-7q.926-.166 1.5-1 .913 2.35 2.5 4" style="opacity:1"/><path fill="#6c4e30" d="M60.5 148.5q1 0 1 1-.658-.098-1 .5l12 14a33.2 33.2 0 0 1-14-.5 185 185 0 0 0-11-15q1.857-.465 0-1.5 9.066-3.859 7.5 5.5 2.176-2.946 5.5-4" style="opacity:1"/><path fill="#966f47" d="M166.5 148.5h22q-1.521 5.39 3 9-1.238 1.426-.5 3a32 32 0 0 0 2.5-4q2.646 2.667 6 4v1q-21.117 3.514-42 0a72.4 72.4 0 0 0 12-.5q-1.108-2.647 0-6-2.27-2.159-1-4.5a31 31 0 0 1-2-2" style="opacity:1"/><path fill="#e4b178" d="M144.5 147.5q11.13-.446 22 1a31 31 0 0 0 2 2q-1.27 2.341 1 4.5-1.108 3.353 0 6a72.4 72.4 0 0 1-12 .5h-14q1.602-1.401 4-1a9.1 9.1 0 0 1 1-5q-.885-1.948-3-2.5 3.752-2.127-1-3l5-1q-2.822-.297-5-1.5" style="opacity:1"/><path fill="#f9f1b2" d="M144.5 147.5q2.178 1.203 5 1.5l-5 1q4.752.873 1 3 2.115.552 3 2.5a9.1 9.1 0 0 0-1 5q-2.398-.401-4 1h-3q-2.687.201-5-1 2.781-.165 6-1-1.87-2.735-2-6a4.93 4.93 0 0 0 3-.5 18.5 18.5 0 0 1-2-3.5q1.18-2.406 4-2" style="opacity:1"/><path fill="#f0c37e" d="M140.5 149.5a18.5 18.5 0 0 0 2 3.5 4.93 4.93 0 0 1-3 .5q.13 3.265 2 6-3.219.835-6 1-.814-.09-1-1 1.237-1.329 3-1-.274-3.654 2-6.5-.834-.575-1-1.5z" style="opacity:1"/><path fill="#e6be7f" d="M275.5 151.5q.926.166 1.5 1 .298 4.833 2.5 9-1.711 1.259-4 2-.91-.186-1-1a152 152 0 0 1-1-6.5q-.29-3.012 2-4.5" style="opacity:1"/><path fill="#906b46" d="M103.5 159.5q-5.807.473-11-1a8.4 8.4 0 0 0 4-.5q-6.601-1.216-1-3.5 1.163-2.844 3-5 2.444-2.34 3.5 1a20.5 20.5 0 0 0 5.5-3q1.5.5 2 2-2.647 2.33-5.5 1-2.838 4.166 2 2 2.643.666-.5 1.5l1.5.5q4.647-1.856 9.5-1.5a266 266 0 0 1-13 6.5" style="opacity:1"/><path fill="#b18458" d="M61.5 144.5q1.602-1.401 4-1h13q8.01 1.172 16.5 2 3.49.483 3.5 4-1.837 2.156-3 5-5.601 2.284 1 3.5a8.4 8.4 0 0 1-4 .5h-3q1.711-4.04-2.5-2-1.555-4.803-6.5-6-1.509.656 0 2-4.683 4.417-3-1.5a4.46 4.46 0 0 1-2-1.5l3-2.5q-2.7-.476-1-2a129 129 0 0 0-16-.5" style="opacity:1"/><path fill="#6e4f32" d="M236.5 147.5q9.73-1.731 20-.5a31.2 31.2 0 0 0 6 4.5l5-4q1.533.533 2 2-3.651.898-5 4.5a22.1 22.1 0 0 1 2 9.5 97 97 0 0 0-24-2q6.221-1.237 13-1.5-1.656-1.697 1-2.5a3.65 3.65 0 0 1 1.5 1q-.363-2.457-2.5-4.5l1-1a15.3 15.3 0 0 1-1.5-4.5l-1.5 1.5q1.01 2.626 1 5a4.93 4.93 0 0 1-3 .5 6.85 6.85 0 0 0-1-4q3.792-1.526 0-3.5a98.4 98.4 0 0 0-14-.5" style="opacity:1"/><path fill="#a87c50" d="M292.5 159.5q-6.61.372-13 2-2.202-4.167-2.5-9-.574-.834-1.5-1a45.5 45.5 0 0 0 6-5.5 25 25 0 0 1 7-.5q-.29 4.462 3 7.5-1.526 1.574-.5 3.5 4.826-.238 9.5 1.5-4.297.274-8 1.5" style="opacity:1"/><path fill="#c49261" d="M61.5 144.5q8.016-.249 16 .5-1.7 1.524 1 2l-3 2.5a4.46 4.46 0 0 0 2 1.5q-1.683 5.917 3 1.5-1.509-1.344 0-2 4.945 1.197 6.5 6 4.211-2.04 2.5 2a32.5 32.5 0 0 1-8-.5 264 264 0 0 0-20-8.5q0-1-1-1-1.456-2.193 1-4" style="opacity:1"/><path fill="#765635" d="M325.5 142.5h9q1.5 2 3 0a16.3 16.3 0 0 0 2 5 333 333 0 0 1-22 10.5 273 273 0 0 1-25 1.5q3.703-1.226 8-1.5-4.674-1.738-9.5-1.5-1.026-1.926.5-3.5-3.29-3.038-3-7.5a25 25 0 0 0-7 .5 45.5 45.5 0 0 1-6 5.5q-2.29 1.488-2 4.5.433 3.28 1 6.5h-3q.27-6.195-4-10.5 1.321-1.062 2-2.5 1.438.679 2.5 2a34.7 34.7 0 0 0 7.5-6.5 903 903 0 0 0 30-1.5q8.29.482 16-1" style="opacity:1"/><path fill="#815e3b" d="M236.5 147.5a98.4 98.4 0 0 1 14 .5q3.792 1.974 0 3.5a6.85 6.85 0 0 1 1 4 4.93 4.93 0 0 0 3-.5q.01-2.374-1-5l1.5-1.5a15.3 15.3 0 0 0 1.5 4.5l-1 1q2.137 2.043 2.5 4.5a3.65 3.65 0 0 0-1.5-1q-2.656.803-1 2.5-6.779.263-13 1.5a224 224 0 0 1-28 1 18.5 18.5 0 0 1-6-.5 499 499 0 0 1 3-12.5q3.353.442 6-1a96.3 96.3 0 0 1 19-1" style="opacity:1"/><path fill="#e2b275" d="M269.5 149.5q-.679 1.438-2 2.5 4.27 4.305 4 10.5a20.7 20.7 0 0 1-5 1 22.1 22.1 0 0 0-2-9.5q1.349-3.602 5-4.5" style="opacity:1"/><path fill="#7c5b39" d="M78.5 143.5q14.016.148 28 1h13a34.8 34.8 0 0 0 7 7l5-4a26 26 0 0 1 4.5 4 11 11 0 0 0 2.5-1q.166.925 1 1.5-2.274 2.846-2 6.5-1.763-.329-3 1 .186.91 1 1 2.313 1.201 5 1-8.223 2.784-17 2a65.3 65.3 0 0 0-20-4 266 266 0 0 0 13-6.5q-4.853-.356-9.5 1.5l-1.5-.5q3.143-.834.5-1.5-4.838 2.166-2-2 2.853 1.33 5.5-1-.5-1.5-2-2a20.5 20.5 0 0 1-5.5 3q-1.056-3.34-3.5-1-.01-3.517-3.5-4a346 346 0 0 1-16.5-2" style="opacity:1"/><path fill="#9c7348" d="M340.5 148.5q4.521 1.16 8 4a173 173 0 0 0-9 12.5q-5.967-.05-12-1.5a141 141 0 0 1 13-15" style="opacity:1"/><path fill="#361d0c" d="M337.5 175.5q-2.343-.35-4-2a54.5 54.5 0 0 0-6-6.5q6-1 12 0-2.237 3.932-2 8.5" style="opacity:1"/><path fill="#02022f" d="M82.5 166.5q58.502 2.37 117 5a4901 4901 0 0 1 117-5q-.626 1.083-2 1.5-58.648 2.505-116.5 5.5A6278 6278 0 0 0 84.5 168q-1.373-.417-2-1.5" style="opacity:1"/></svg>