<svg xmlns="http://www.w3.org/2000/svg" width="256" height="256" style="shape-rendering:geometricPrecision;text-rendering:geometricPrecision;image-rendering:optimizeQuality;fill-rule:evenodd;clip-rule:evenodd"><path fill="#31434a" d="M-.5-.5h256v256H-.5z" style="opacity:1"/><path fill="#ebecf2" d="M161.5 59.5a16774 16774 0 0 0 3 163q-3.201 2.3-7.5 2A863 863 0 0 1 67.5 210q-5.85-1.014-10.5-4.5-.877-63.05 3-126 .123-8.672 3.5-16.5a362 362 0 0 1 25-2.5q-.25-7.517.5-15A108 108 0 0 1 99.5 32a227 227 0 0 1 20-5.5q2.157.329 4 1.5 1.927 3.634 5.5 5.5 10.065-4.584 20.5-1.5L160 42.5a67.7 67.7 0 0 1 1.5 17" style="opacity:1"/><path fill="#2c3d45" d="M108.5 40.5a57 57 0 0 1 15 1q-4.823 8.3-4 18a134 134 0 0 0-20 1q-.25-7.517.5-15a9.5 9.5 0 0 1 1.5-2.5q3.64-1.353 7-2.5" style="opacity:1"/><path fill="#2f4048" d="M137.5 42.5q4.422-.416 8.5 1a74.5 74.5 0 0 1 2.5 15h-14a51 51 0 0 0-2-14q2.687-1.005 5-2" style="opacity:1"/><path fill="#2aa195" d="M161.5 59.5q11.028.252 22 1.5 3.34.181 5.5 2.5a1326 1326 0 0 1 6 136q-13.862 13.532-30.5 23a16774 16774 0 0 1-3-163" style="opacity:1"/><path fill="#2ca195" d="M135.5 96.5q7.58 4.311 14 10.5a2075 2075 0 0 1-46.5 61.5 404 404 0 0 1-30.5-28q4.965-6.717 10.5-13l19 14a884 884 0 0 0 33.5-45" style="opacity:1"/></svg>