<svg xmlns="http://www.w3.org/2000/svg" width="800" height="800" fill="none" viewBox="0 0 24 24"><path fill="#000" fill-rule="evenodd" d="M10.501 1.154a1 1 0 0 1 1.002.002c.842.49 1.62.904 2.356 1.294l.524.28c.874.467 1.7.924 2.428 1.438 1.514 1.068 2.608 2.385 3.16 4.59.541 2.168.25 4.102-.129 5.903q-.106.506-.217.996c-.25 1.128-.489 2.205-.583 3.343H20a1 1 0 0 1 .949.684L21.72 22H22a1 1 0 1 1 0 2H4a1 1 0 1 1 0-2h.28l.771-2.316A1 1 0 0 1 6 19h1.323l1.446-3.616L3.54 16.76a2 2 0 0 1-2.298-1.04l-.796-1.592a1.994 1.994 0 0 1 .453-2.38c.808-.723 2.331-2.074 3.46-3.016.484-.403.842-.87 1.175-1.387.134-.208.258-.412.387-.627l.109-.18c.166-.273.345-.563.545-.842.404-.565.918-1.125 1.673-1.516A4.8 4.8 0 0 1 10 3.682V2.02a1 1 0 0 1 .501-.866m.48 13.648a1 1 0 0 1-.053.57L9.478 19h7.56c.1-1.38.387-2.665.65-3.846q.105-.463.198-.905c.364-1.729.573-3.294.145-5.007-.42-1.676-1.194-2.609-2.372-3.44-.617-.436-1.344-.842-2.218-1.309l-.507-.27q-.448-.237-.933-.498v.928a1 1 0 0 1-1.038 1c-.874-.034-1.419.109-1.794.303-.374.194-.667.485-.966.904-.153.213-.3.448-.462.716l-.098.162c-.132.218-.276.456-.428.692-.388.601-.873 1.253-1.573 1.838a154 154 0 0 0-3.405 2.967l.795 1.591 8.715-2.293a1 1 0 0 1 .508 1.934zM7 21h12.28l.333 1H6.387l.334-1zm2.5-10a1.5 1.5 0 1 0 0-3 1.5 1.5 0 0 0 0 3" clip-rule="evenodd"/></svg>