<svg xmlns="http://www.w3.org/2000/svg" width="800" height="800" viewBox="0 0 32 32"><title>codecademy</title><path d="M9.742 14.998a2.01 2.01 0 0 1 1.741.77l.003.005a.2.2 0 0 0 .288.043l1.292-1.15c.094-.055.072-.205.025-.28a4.29 4.29 0 0 0-3.43-1.554h.006a4 4 0 0 0-4.059 2.728l-.008.028a7.8 7.8 0 0 0-.3 2.489v-.015a7.3 7.3 0 0 0 .333 2.526l-.014-.052A3.985 3.985 0 0 0 9.7 23.289l-.013.001.124.002c1.32 0 2.503-.588 3.302-1.516l.005-.006a.2.2 0 0 0 .047-.131.2.2 0 0 0-.066-.151l-1.296-1.143a.2.2 0 0 0-.28.034 2.19 2.19 0 0 1-1.742.864l-.079-.001h.004l-.11.003a1.8 1.8 0 0 1-1.723-1.284l-.003-.013a5.7 5.7 0 0 1-.207-1.867l-.001.014a5.7 5.7 0 0 1 .235-1.877l-.01.04a1.84 1.84 0 0 1 1.862-1.259h-.005zM3.276 25.464v.014c0 .08.049.148.119.176h15.8a.19.19 0 0 0 .121-.176l-.001-.017v.001-18.97a.18.18 0 0 0-.122-.173H3.396a.19.19 0 0 0-.12.175v.013-.001l-.004 18.957zM21.577 4.082q.031.064.056.142l.002.008v23.494a.2.2 0 0 1-.047.13.21.21 0 0 1-.161.075H1.194l-.026.002a.2.2 0 0 1-.096-.027h.001a.23.23 0 0 1-.07-.164V4.209l-.001-.015c0-.079.05-.146.119-.172h20.298q.08.001.145.043l-.001-.001v.02zm9.202 21.576h-7.005a.2.2 0 0 0-.199.216v-.001 1.906c0 .11.09.2.2.2l.016-.001h-.001 6.99l.026.002a.19.19 0 0 0 .189-.189l-.001-.018v.001-1.893l.001-.02a.19.19 0 0 0-.19-.19l-.028.002h.001z"/></svg>