<svg xmlns="http://www.w3.org/2000/svg" width="1000" height="1011" fill="none" viewBox="0 0 1000 1011"><g clip-path="url(#clip0_732_1338)"><path fill="#ffe866" d="M999.995 501.717c1.245 278.132-221.606 504.603-497.722 505.863C226.118 1008.84 1.255 784.39.005 506.257S221.611 1.651 497.765.392c276.117-1.22 500.98 223.193 502.23 501.325"/><path fill="#4bcc00" d="M753.577 323.781c-36.29-10.568-73.868-25.6-111.977-40.747-2.197-9.614-10.645-21.594-27.767-36.283-24.888-21.747-71.633-21.175-112.015-11.56-44.586-10.568-88.642-14.346-130.917-4.121C25.196 327.024 221.194 561.014 94.254 796.301c18.069 38.572 217.361 223.889 494.426 203.315 0 0-96.332-233.15 121.069-345.09 176.337-90.765 303.731-259.323 43.79-330.783z"/><path fill="#35af00" d="M494.507 233.779c30.951 12.37 141.772 51.75 190.674 66.528-55.317-79.541-128.375-76.665-190.674-66.528"/><path fill="#fff" d="M525.759 379.88c0 53.795-43.298 97.366-96.673 97.366s-96.673-43.571-96.673-97.366 43.298-97.327 96.673-97.327 96.673 43.57 96.673 97.327"/><path fill="#4bcc00" d="M874.561 520.005c-78.3 55.588-167.435 97.747-293.769 97.747-59.132 0-71.141-63.295-110.234-32.277-20.191 16.024-91.332 51.849-147.813 49.14-56.973-2.747-147.926-36.092-173.496-157.455-10.114 121.363-15.266 210.793-60.534 313.271C199.838 953.745 393.589 1035 588.672 999.659 567.723 852.276 695.61 707.945 767.66 634.081c27.275-27.966 79.551-73.634 106.901-114.076"/><ellipse cx="469.83" cy="379.214" fill="#0d1217" rx="56.729" ry="79.42"/><path fill="#fff" d="m469.833 379.205-68.074-45.383v90.766z"/></g><defs><clipPath id="clip0_732_1338"><path fill="#fff" d="M0 .387h1000v1010.61H0z"/></clipPath></defs></svg>