<svg xmlns="http://www.w3.org/2000/svg" width="256" height="256"><path fill="#010001" d="m164 4 2.095.666C185.982 11.186 202.925 21.567 218 36l2.262 2.07c20.056 18.972 34.512 48.687 35.915 76.43.55 34.612.55 34.612-4.177 49.5l-.715 2.341C242.162 195.498 222.712 220.573 197 237l-3.324 2.145c-9.389 5.702-19.217 9.583-29.676 12.855l-2.155.689c-21.112 6.426-48.88 6.038-69.845-.689l-2.095-.666C70.018 244.814 53.075 234.433 38 220l-2.262-2.07C15.63 198.909 1.184 169.183-.177 141.386-.73 106.74-.73 106.74 4 92l.666-2.095C11.186 70.018 21.567 53.075 36 38l2.07-2.262C68.553 3.512 121.787-9.545 164 4"/><path fill="#012426" d="M124.063 61.813c8.816 4.429 17.26 9.553 25.757 14.558a1306 1306 0 0 0 17.118 9.879l5.144 2.941c2.43 1.39 4.86 2.777 7.298 4.152 25.614 14.46 25.614 14.46 29.62 24.657 1.727 6.241.916 10.369-2.09 16.055-1.122 2.04-1.122 2.04-.91 4.945-1.722 5.705-3.881 8.131-8.867 11.348-2.32 1.797-3.96 3.88-5.797 6.15-9.608 10.797-26.382 17.342-38.91 24.418-7.196 4.072-14.32 8.267-21.436 12.48A247 247 0 0 1 113 203l-2.125 1.028a685 685 0 0 1-5.75 2.722l-1.93.918c-6.993 3.278-14.72 5.177-22.328 2.613-5.965-3.202-9.114-7.77-11.226-14.017-1.865-6.587-1.79-13.591-1.786-20.389l-.01-2.615q-.013-4.238-.013-8.475l-.01-5.943q-.009-6.211-.007-12.424c0-5.286-.014-10.573-.031-15.86q-.015-6.13-.013-12.263 0-2.923-.013-5.845C67.698 95.94 68.178 80.807 80 68l1-2h2l.625-1.937L85 62a221 221 0 0 1 6-1 125 125 0 0 0 6-4c9.714-3.238 18.313.618 27.063 4.813"/><path fill="#fdfdfe" d="M88 67c3.764 1.506 7.035 3.032 10.55 4.984l3.269 1.813 3.493 1.953 1.809 1.008c10.362 5.776 20.628 11.709 30.86 17.715 9.513 5.584 19.081 11.073 28.64 16.579q5.332 3.076 10.66 6.159l5.362 3.1q2.542 1.47 5.083 2.943l3.11 1.797 2.736 1.583A121 121 0 0 0 200 130v2l-1.455.788a1132 1132 0 0 0-33.055 18.666A2160 2160 0 0 1 142 165a2756 2756 0 0 0-29.858 17.243c-5.25 3.066-5.25 3.066-10.497 6.135a1784 1784 0 0 1-6.02 3.497l-3.21 1.867C90 195 90 195 88 195z"/><path fill="#4f1450" d="M124.063 61.813c8.816 4.429 17.26 9.553 25.757 14.558a1306 1306 0 0 0 17.118 9.879l5.144 2.941c2.43 1.39 4.86 2.777 7.298 4.152 25.614 14.46 25.614 14.46 29.62 24.657 1.167 5.112 1.606 9.249-1 14h-3l-.687 1.625c-1.747 3.16-3.953 5.643-6.313 8.375l-2-1 1-2-1.875 2C193 143 193 143 191 143c1.334-3.591 2.75-6.884 5-10 2.188-.812 2.188-.812 4-1v-2l-2.665-.816c-3.167-1.124-5.8-2.439-8.694-4.133l-3.09-1.797c-1.09-.64-2.179-1.281-3.301-1.942l-3.473-2.023q-3.604-2.099-7.205-4.205c-5.51-3.218-11.042-6.4-16.572-9.584l-6.508-3.754-3.25-1.875q-4.837-2.791-9.672-5.586A10001 10001 0 0 0 88 67c2.303-5.01 4.141-7.267 9-10 9.714-3.238 18.313.618 27.063 4.813"/><path fill="#0c6b76" d="m86 82 2 1v112c14.328-8.024 28.6-16.052 42.758-24.36 6.784-3.967 13.603-7.87 20.43-11.765l1.776-1.014 8.68-4.948q7.805-4.452 15.606-8.913l5.14-2.937 2.127-1.215L186 139l2 2-2.437 1.813c-2.786 1.996-2.786 1.996-3.563 5.187l-3 1-1.937 2c-2.206 2.138-3.18 2.35-6.063 3l-1.176 1.305c-2.624 2.438-5.743 3.742-8.949 5.257a233 233 0 0 0-17.5 9.438l-2.135 1.27q-2.1 1.252-4.197 2.507a1047 1047 0 0 1-9.668 5.723l-3.227 1.906c-3.331 1.687-6.54 2.662-10.148 3.594-2.32.823-2.32.823-4 2l-1 3c-2.562 1.188-2.562 1.188-5 2v2c-5.398 2.742-9.8 4.835-16 4-3.01-1.05-4.47-2.089-6.08-4.855-2.567-5.527-3.512-10.054-3.498-16.118l-.04-2.566c-.04-2.77-.052-5.539-.062-8.309q-.03-2.91-.064-5.823-.065-6.082-.095-12.166c-.026-5.184-.08-10.367-.141-15.55q-.068-6.007-.113-12.012-.024-2.867-.056-5.733c-.027-2.675-.04-5.35-.05-8.024l-.03-2.364c0-5.665.035-12.286 4.229-16.48l1-2.562C84 83 84 83 86 82"/><path fill="#054d52" d="m86 77 2 2c-.187 2.063-.187 2.063-1 4l-3 1a172 172 0 0 0-2 7l-2 2c-.957 5.546-1.135 10.952-1.085 16.568l.01 2.472q.02 4.01.055 8.019l.022 2.785q.055 7.29.13 14.581c.05 5 .076 10.001.097 15.002.02 3.866.058 7.73.1 11.595q.027 2.764.032 5.53C78.84 183.025 78.84 183.025 84 195c3.809 2.4 7.606 2.583 12 2 3.301-1.4 3.301-1.4 6-3h2v-2l5-3 2.25-2.5c2.65-2.408 3.544-2.9 6.797-3.809 5.425-1.716 10.07-4.369 14.953-7.254l2.753-1.595a913 913 0 0 0 13.075-7.748l2.27-1.361q2.073-1.248 4.132-2.522c4.201-2.534 8.234-4.137 12.976-5.418L170 156l1-3 7-2 1-3h3l.25-1.75c.953-2.858 2.61-4.18 4.75-6.25v-2c6.75-4 6.75-4 9-4-1.498 3.112-3.2 6.053-5 9l1.875-2c2.125-2 2.125-2 4.125-2-.376 2.782-.673 4.588-2.437 6.813C193 147 193 147 191 147l-.562 1.688c-3.638 5.852-11.045 8.863-16.909 12.163a295 295 0 0 0-11.779 7.024c-3.724 2.324-7.466 4.54-11.32 6.64l-2.41 1.314a515 515 0 0 1-4.666 2.495c-4.362 2.358-7.995 4.936-11.684 8.244-2.595 2.225-5.37 3.91-8.295 5.682l-3.29 2.016c-3.967 2.23-7.122 3.616-11.647 4.172-3.382.273-3.382.273-5.376 2.062-4.629 3.367-11.547 2.82-17.023 2.059-4.066-1.114-5.956-3.829-8.111-7.272-2.887-5.285-3.491-9.533-3.398-15.498l-.007-2.679c-.002-2.9.024-5.8.051-8.7q.007-3.045.01-6.089.012-6.369.06-12.737c.039-5.424.057-10.849.067-16.273.01-5.196.03-10.392.05-15.588l.011-2.978q.019-4.203.051-8.405l.008-2.47c.142-15.329.142-15.329 3.544-20.433l1.273-2.003L81 80h3z"/><path fill="#011214" d="m79 60 6 1-2 5h-2v4l-2.687 1.875c-5.757 4.352-7.46 13.018-8.865 19.783-.552 4.12-.596 8.14-.593 12.294l-.01 2.668q-.013 4.353-.013 8.704l-.01 6.083q-.009 6.375-.007 12.748c0 5.422-.014 10.844-.031 16.266q-.015 6.285-.013 12.568 0 2.997-.013 5.993c-.824 19.74-.824 19.74 7.242 37.018 4.382 4.038 9.138 4.67 14.957 4.46C118.866 206.234 177.483 173.905 195 151c3.517-3 3.517-3 6-3l1-3 3-1v-2l3 1-1.437 2.75c-1.21 2.514-2.043 4.546-2.563 7.25l-1.812.313c-2.21.506-2.21.506-3.47 1.988-2.256 2.23-4.756 3.83-7.405 5.574l-3.258 2.145a452 452 0 0 1-8.996 5.699 293 293 0 0 0-4.711 3c-4.597 2.976-9.133 5.77-14.07 8.133-7.462 3.762-14.63 8.18-21.84 12.398Q135.22 194.128 132 196l-2.342 1.361c-36.08 20.921-36.08 20.921-47.74 18.143-8.181-2.769-12.134-7.165-15.938-14.711-2.306-6.57-2.132-13.62-2.141-20.507l-.015-2.842q-.021-4.62-.027-9.24l-.009-3.21a8872 8872 0 0 1-.028-16.808c-.006-5.761-.03-11.522-.058-17.282-.019-4.454-.024-8.909-.026-13.363q-.004-3.184-.024-6.368c-.158-27.348-.158-27.348 7.946-38.235C72.986 71.02 73.98 69.132 75 67c1.308-2.349 2.657-4.671 4-7"/><path fill="#932694" d="M145.648 87.176c4.36 2.666 8.778 5.219 13.227 7.734l1.87 1.06c2.512 1.422 5.024 2.843 7.543 4.254C188.814 111.722 188.814 111.722 195 121c.39 1.99.732 3.99 1 6l-2 1c-2.201-1.025-2.201-1.025-4.969-2.656l-3.129-1.826-3.402-2.018-3.527-2.064q-3.672-2.147-7.336-4.303c-5.526-3.246-11.083-6.437-16.637-9.633l-6.465-3.73q-6.675-3.851-13.351-7.696C123.088 87.107 111.012 80.11 99 73c10.159-12.297 36.745 8.093 46.648 14.176"/><path fill="#03373a" d="m86 74 2 2-1 3-1-1-1.375 1.5C83 81 83 81 81 81a167 167 0 0 0-1.937 3.5l-1.09 1.969c-2.38 6.192-2.132 13.171-2.166 19.726l-.025 2.674q-.035 4.342-.055 8.686l-.017 3.015q-.039 7.896-.06 15.79-.02 6.51-.082 13.018a1961 1961 0 0 0-.081 15.784 689 689 0 0 1-.046 5.987C74.895 185.931 74.895 185.931 81 199c4.193 3.315 8.354 3.449 13.535 3.3 3.609-.44 6.219-1.677 9.465-3.3 1.323-.373 2.652-.73 4-1-1 3-1 3-3.937 4.688C101 204 101 204 99 204v2c-6.858 1.046-12.888 1.795-19-2-2.312-2.5-2.312-2.5-4-5l-1.602-1.371c-1.865-2.173-1.65-3.38-1.46-6.191.191-2.325.191-2.325.062-4.438l-2-2a104 104 0 0 1-.259-8.13l-.01-2.549c-.01-2.793-.003-5.586.003-8.38l-.005-5.83q-.005-6.128.01-12.255c.012-5.212.005-10.423-.007-15.635q-.009-6.031 0-12.063.003-2.88-.005-5.759c-.047-24.783-.047-24.783 4.398-31.711 3.428-3.205 7.033-6 10.875-8.688"/><path fill="#661a67" d="m120.563 68.188 2.17 1.05c8.472 4.205 16.575 9.068 24.704 13.89a879 879 0 0 0 13.938 8.087l1.88 1.069q3.658 2.079 7.32 4.15C188.226 106.41 188.226 106.41 193 110v2h2c4.244 4.968 6 8.423 6 15-1.437 2-1.437 2-3 3-2.842-2.067-3.075-3.33-3.875-6.875-1.638-7.24-8.327-11.083-14.125-15.125-3.443-2.105-6.965-4.055-10.5-6q-3.068-1.709-6.133-3.422l-3.177-1.775c-5.226-2.953-10.392-6.008-15.565-9.053-6.976-4.081-13.96-8.143-21.062-12l-1.95-1.087c-6.26-3.337-12.902-5.704-19.925-3.6-2.426.722-2.426.722-4.688.937-2.293-1.441-2.293-1.441-4-3 9.18-6.618 17.606-5.76 27.563-.812"/><path fill="#2d0b2f" d="M125.807 62.689c8.18 4.242 16.076 9.007 24.013 13.682a1306 1306 0 0 0 17.117 9.879l5.145 2.941c2.43 1.39 4.86 2.777 7.298 4.152 25.614 14.46 25.614 14.46 29.62 24.657 1.167 5.112 1.606 9.249-1 14h-3l-.688 1.625c-1.746 3.16-3.952 5.643-6.312 8.375l-2-1a125 125 0 0 1 4-6h2c3.018-8.355 3.018-8.355 2-17-5.272-9.882-15.413-15.201-24.924-20.327-4.934-2.684-9.801-5.485-14.673-8.279q-2.738-1.569-5.475-3.134a5235 5235 0 0 1-16.998-9.76c-19.004-12.63-19.004-12.63-40.493-15.812L98 62q-2.466.82-4.938 1.625Q91.03 64.31 89 65c1.987-4.47 4.437-6.328 8.762-8.273 9.923-3.221 19.289 1.563 28.045 5.962"/><path fill="#5f63a3" d="m186 139 2 2-2.437 1.813c-2.786 1.996-2.786 1.996-3.563 5.187l-3 1-1.937 2c-2.206 2.138-3.18 2.35-6.063 3l-1.176 1.305c-2.624 2.438-5.743 3.742-8.949 5.257a233 233 0 0 0-17.5 9.438l-2.135 1.27q-2.1 1.252-4.197 2.507a1047 1047 0 0 1-9.668 5.723l-3.227 1.906c-3.325 1.684-6.56 2.618-10.148 3.594l-2.062 1.563c-2.599 1.927-4.742 2.229-7.938 2.437l-2-2 2.025-1.126c16.77-9.334 16.77-9.334 33.367-18.97 16.07-9.527 32.29-18.809 48.608-27.904"/><path fill="#344b74" d="M196 134c-4.508 9.543-10.775 17.264-20.086 22.29-5.126 2.808-10.143 5.782-15.164 8.773a1457 1457 0 0 1-25.52 14.802l-2.433 1.381-2.376 1.348c-3.414 1.983-6.763 4.069-10.106 6.167-3.032 1.623-5.966 2.287-9.33 2.872-2.483.46-4.69 1.33-6.985 2.367v-2l5-3 2.25-2.5c2.65-2.408 3.544-2.9 6.797-3.809 5.425-1.716 10.07-4.369 14.953-7.254l2.753-1.595a913 913 0 0 0 13.075-7.748l2.27-1.361q2.073-1.248 4.132-2.522c4.201-2.534 8.234-4.137 12.976-5.418L170 156l1-3 7-2 1-3h3l.25-1.75c.953-2.858 2.61-4.18 4.75-6.25v-2c6.75-4 6.75-4 9-4"/><path fill="#071a20" d="M205 132h2l-.5 1.813c-.611 2.3-.611 2.3-.5 5.187-1.722 5.705-3.881 8.131-8.867 11.348-2.32 1.797-3.96 3.88-5.797 6.15-9.608 10.797-26.382 17.342-38.91 24.418-7.196 4.072-14.32 8.267-21.436 12.48C114.658 203 114.658 203 111 203v-2c8.987-6.881 19.386-12.079 29.251-17.555 9.865-5.48 19.605-11.148 29.274-16.965a661 661 0 0 1 7.084-4.164C188.577 155.257 196.174 147.197 203 135z"/><path fill="#278dae" d="m86 95 2 1v88l-2 1c-1.82-4.653-2.287-8.805-2.259-13.746l-.01-2.279c-.01-2.47-.003-4.942.003-7.412l-.005-5.178q-.005-5.417.01-10.833c.012-4.62.005-9.24-.007-13.86q-.009-5.343 0-10.686.003-2.555-.005-5.11c-.005-2.383.003-4.766.014-7.15l-.012-2.116c.036-4.241.728-7.684 2.271-11.63"/><path fill="#bf33c0" d="M106 76h4v2l3.531.27c4.478.57 8.065 2.218 11.969 4.418l2.16 1.18c9.606 5.297 19.05 10.887 28.497 16.46q3.893 2.288 7.804 4.547c7.589 4.398 14.984 8.89 22.039 14.125l-1 3a317 317 0 0 1-23.125-12.437l-6.293-3.7-3.263-1.92c-5.568-3.26-11.163-6.475-16.756-9.693A16689 16689 0 0 1 123 87l-2.794-1.614a2644 2644 0 0 1-7.331-4.261l-2.154-1.245A184 184 0 0 1 106 77z"/><path fill="#1b384d" d="M195 139h2c-.376 2.782-.673 4.588-2.437 6.813C193 147 193 147 191 147l-.562 1.688c-3.638 5.852-11.045 8.863-16.909 12.163a295 295 0 0 0-11.779 7.024c-3.724 2.324-7.466 4.54-11.32 6.64l-2.41 1.314a515 515 0 0 1-4.666 2.495c-4.362 2.358-7.995 4.936-11.684 8.244-2.595 2.225-5.37 3.91-8.295 5.682l-3.29 2.016c-6.966 3.915-6.966 3.915-10.397 3.359L108 197l1.828-1.172 2.422-1.578c.789-.51 1.578-1.02 2.39-1.547 2.391-1.617 2.391-1.617 4.235-3.664 2.668-2.56 5.645-4.181 8.875-5.914q2.139-1.174 4.273-2.355l2.378-1.314c5.029-2.817 9.999-5.735 14.974-8.643l3.022-1.764c4.666-2.726 9.317-5.472 13.943-8.264 3.568-2.15 7.187-4.17 10.847-6.16 4.779-2.751 8.086-5.641 11.41-10.023C190 143 190 143 193 142z"/><path fill="#0e2833" d="M199 140c0 3.679-.753 4.18-3.187 6.813-2.077 2.266-3.968 4.412-5.72 6.949-4.265 5.13-10.677 7.998-16.405 11.238l-3.912 2.25q-3.972 2.287-7.953 4.56c-4.529 2.588-9.026 5.23-13.523 7.873-10.676 6.27-21.397 12.452-32.3 18.317l-2.073 1.115a508 508 0 0 1-5.865 3.072l-3.34 1.731C102 205 102 205 99 204c5.75-3 5.75-3 8-3l1-3c1.793-.887 1.793-.887 4.188-1.687 4.617-1.73 8.843-3.829 13.124-6.25l1.777-.982c2.781-1.598 4.997-3.17 7.227-5.487 2.8-2.705 5.413-4.348 8.832-6.188l1.745-.951a858 858 0 0 1 5.482-2.955c7.136-3.843 14.12-7.635 20.625-12.5 1.48-.887 2.978-1.748 4.5-2.562l2.293-1.254a309 309 0 0 1 4.195-2.211c3.992-2.128 6.316-4.378 9.012-7.973h2l1-3h2v-2z"/><path fill="#b12db2" d="m109 73 3.563.625c10.73 2.871 20.635 9.558 30.124 15.125l2.937 1.718 5.238 3.11c2 1.33 3.453 2.73 5.138 4.422a84 84 0 0 0 4.203 2.594l2.473 1.433 2.574 1.473 2.527 1.473c3.644 2.1 7.244 4.112 11.13 5.73 5.15 2.16 8.741 4.958 10.968 10.11L191 124l-2 1c-2.125-.937-2.125-.937-4-2l1-4-1.688-.801c-2.544-1.32-4.895-2.816-7.296-4.379-5.985-3.837-12.098-7.413-18.266-10.945l-3.386-1.944Q150.184 97.96 145 95l-3.328-1.907a4193 4193 0 0 0-9.36-5.343l-2.838-1.625C120.21 80.839 120.21 80.839 110 78v-2l-2.75.188c-3.54-.205-4.7-.834-7.25-3.188 3.119-1.56 5.612-.601 9 0"/><path fill="#401041" d="M153.536 81.986c3.465 2.019 6.943 4.013 10.425 6.002 36.646 20.955 36.646 20.955 41.602 31.262.488 3.068.183 4.229-1.563 6.75-1.662-2.493-2.428-4.06-3.312-6.812-3.407-9.035-9.84-12.481-17.946-17.177a466 466 0 0 1-5.082-3.007C173.182 96.34 168.892 93.826 164 92v-2l-1.937-.687c-2.615-1.12-4.97-2.35-7.438-3.75-2.747-1.557-5.456-2.984-8.375-4.188-2.964-1.254-5.61-2.535-8.25-4.375v-2l-2.055-.754c-2.836-1.2-5.477-2.608-8.16-4.115C119.902 65.722 112.418 62 103.188 62c-3.047.956-4.012 1.56-6.25 3.625C94 68 94 68 90.625 67.813L88 67c21.178-18.064 46.103 3.64 65.536 14.986"/><path fill="#085d64" d="M77 99c2.526 2.526 2.242 4.097 2.268 7.543l-.013 2.344.011 2.47q.01 2.66.008 5.321.001 4.22.03 8.439.068 11.998.077 23.998c.005 4.891.03 9.782.065 14.674q.015 2.79.007 5.579C78.83 182.94 78.83 182.94 84 195c3.832 2.4 7.588 2.609 12 2 2.728-.934 5.213-2.2 7.75-3.562 6.624-3.51 6.624-3.51 9.703-3.153L115 191c-19.076 10.807-19.076 10.807-27.812 9.375-4.175-1.8-6.26-3.615-8.376-7.625-1.862-6.302-1.957-12.758-1.926-19.277v-2.457q.002-3.976.016-7.953l.005-5.549q.006-7.27.024-14.539.014-7.431.02-14.862Q76.967 113.557 77 99"/><path fill="#188195" d="M85 89h2l1 7-2 1c-1.425 3.683-1.148 7.643-1.145 11.535l-.01 2.283q-.013 3.73-.013 7.46l-.01 5.193q-.009 5.44-.007 10.881c0 4.645-.014 9.29-.031 13.935q-.015 5.363-.013 10.724 0 2.57-.013 5.137c-.01 2.396-.007 4.792 0 7.188-.007.705-.012 1.41-.018 2.136.025 3.95.526 6.969 2.26 10.528h1v7l-2 1c-4.023-6.997-4.122-13.903-4.145-21.802l-.01-2.226q-.013-3.605-.013-7.21l-.01-5.066q-.009-5.297-.007-10.593c0-4.499-.014-8.997-.031-13.495q-.015-5.229-.013-10.458 0-2.485-.013-4.971C81.682 98.286 81.682 98.286 84 90z"/><path fill="#791f7a" d="M126 73c1.773 1.625 1.773 1.625 3 3 2.103.714 2.103.714 4 1v2l2.188.813C138 81 138 81 140.563 82.563 142.78 83.87 144.49 84.535 147 85v2l5 1v2l2.188.813C157 92 157 92 159.563 93.563 161.78 94.87 163.49 95.535 166 96v2l2.047.742c9.756 4.156 22.456 11.031 28.176 20.223 1.289 3.375.897 6.45.777 10.035-2-2-2-2-2.812-5.812-1.716-7.27-8.347-11.116-14.188-15.188-3.443-2.105-6.965-4.055-10.5-6q-3.068-1.709-6.133-3.422l-3.177-1.775c-5.226-2.953-10.392-6.008-15.565-9.053-6.976-4.081-13.96-8.143-21.062-12l-1.95-1.087c-6.31-3.363-12.957-5.66-20.05-3.663-2.497.688-2.497.688-4.563 1l-2-2c11.095-3.86 20.501-1.847 31 3"/><path fill="#425487" d="m186 139 2 2-2.437 1.813c-2.786 1.996-2.786 1.996-3.563 5.187l-3 1-1.937 2c-2.206 2.138-3.18 2.35-6.063 3l-1.176 1.305c-2.624 2.438-5.743 3.742-8.949 5.257a233 233 0 0 0-17.5 9.438l-2.124 1.265q-2.094 1.25-4.186 2.504a816 816 0 0 1-10.002 5.856l-3.403 1.977C121 183 121 183 119 183v-2l2.209-1.218q5.115-2.826 10.228-5.657l1.857-1.027c8.365-4.634 16.68-9.337 24.854-14.303C162.795 156 162.795 156 165 156v-5z"/><path fill="#012324" d="M85 62h5v4h-2v10l-2-1q-1.944 1.398-3.875 2.813l-2.18 1.582C77.77 81.033 77.77 81.033 76 84h-2l-1 5-3 1c-1-2-1-2-.215-4.793C72.38 78.314 74.848 73.269 80 68l1-2h2z"/><path fill="#254260" d="M190 141c0 4.303-2.11 5.896-4.922 8.988-2.975 2.88-6.203 5.47-10.078 7.012l-3-1 2.16-1.504c5.786-4.104 11.045-8.26 15.84-13.496m-20 16 2 1c-6.803 4.732-13.869 8.82-21.125 12.813-10.359 5.746-20.708 11.52-30.64 17.988L118 190l-2-1c6.575-4.73 13.564-8.6 20.703-12.396 4.047-2.19 7.088-4.264 10.297-7.604 2.121-.984 2.121-.984 4.438-1.75 5.834-2.148 10.705-5.343 15.875-8.738.886-.5 1.773-.998 2.687-1.512"/><path fill="#117585" d="m82 93 2 2c-.28 2.008-.625 4.007-1 6a222 222 0 0 0-.161 7.99l-.015 2.358a2184 2184 0 0 0-.027 7.675l-.009 2.661q-.022 6.968-.028 13.936c-.006 4.784-.03 9.567-.058 14.35-.019 3.693-.024 7.385-.026 11.078a917 917 0 0 1-.024 5.289 776 776 0 0 0-.008 7.414l-.028 2.18c.042 5.263 1.211 9.26 3.384 14.069l2 1-1 4c-3.172-2.96-5.68-5.508-6.249-9.942l.002-2.063-.013-2.383.017-2.587-.006-2.746c-.003-2.993.007-5.985.019-8.978v-6.231q.003-6.525.024-13.05.023-8.385.02-16.768.001-6.43.013-12.86l.006-6.185q.004-4.31.022-8.62l-.002-2.605c.033-5.868.033-5.868 1.147-6.982"/><path fill="#314b71" d="m144 173-2.14 1.238a8943 8943 0 0 0-9.61 5.575l-3.367 1.947-3.242 1.885-2.984 1.73c-2.337 1.43-4.472 2.979-6.657 4.625-2.254.914-2.254.914-4.562 1.625l-2.317.727L107 193l-3 1v-2l5-3 2.25-2.5c3.086-2.805 5.243-3.422 9.152-4.55 3.167-1.158 5.843-2.764 8.723-4.512 10.763-6.494 10.763-6.494 14.875-4.438"/><path fill="#044043" d="M75 92h1q-.126 13.247-.288 26.495-.076 6.15-.134 12.301-.056 5.933-.136 11.866a984 984 0 0 0-.045 4.533 883 883 0 0 1-.078 6.336l-.04 3.647C75 160 75 160 73 162c-.94-17.173-1.097-34.136-.125-51.312l.137-2.49q.199-3.5.418-6.999l.126-2.123c.326-4.84.326-4.84 1.444-7.076"/><path fill="#892389" d="M148 90c4.174 1.273 7.759 2.84 11.52 5.047l3.1 1.812 3.192 1.891 3.159 1.844C191.62 113.902 191.62 113.902 195 121c.688 3.313.688 3.313 1 6l-2 1-2-1-.062-3.562c-.5-5.238-3.633-7.465-7.516-10.676-4.449-3.296-4.449-3.296-9.547-5.262-1.875-.5-1.875-.5-3.173-1.837-2.083-2.036-4.285-3.31-6.807-4.765l-2.979-1.734-3.103-1.789a2101 2101 0 0 1-6.106-3.54l-2.735-1.576c-.65-.415-1.302-.83-1.972-1.259z"/><path fill="#a32da5" d="m109 73 3.563.625C126.989 77.485 140.363 87.391 153 95l-2 1a136 136 0 0 1-7-3v-2l-2.5-.75c-4.024-1.437-7.72-3.274-11.5-5.25v-2l-2.375-.437C125 82 125 82 123 81v-2c-5.44-1.855-10.49-2.33-16.23-2.559-3.07-.489-4.48-1.391-6.77-3.441 3.119-1.56 5.612-.601 9 0"/><path fill="#ce3dce" d="M140 96c6.41.402 10.696 2.756 16.125 6.063l2.507 1.493q2.505 1.497 5 3.01a612 612 0 0 0 6.497 3.871c6.583 3.924 6.583 3.924 8.871 5.563v2c-4.188-1.274-7.758-2.85-11.52-5.082l-3.1-1.826-3.192-1.904-6.27-3.708-3.022-1.787A468 468 0 0 0 140 97z"/><path fill="#58619f" d="M130 176a805 805 0 0 1-4.375 2.5l-2.46 1.406C121 181 121 181 119 181v2l-2.25.813c-2.742 1.038-2.742 1.038-4.687 2.75-2.677 1.865-4.831 2.226-8.063 2.437l-2-2c3.033-1.828 6.077-3.634 9.125-5.437l2.594-1.565c10.225-6.017 10.225-6.017 16.281-3.998"/><path fill="#121422" d="M205 132h2l-.5 1.813c-.611 2.3-.611 2.3-.5 5.187-1.947 6.448-5.18 9.649-11 13-3 .875-3 .875-5 1l2.563-2.812c4.045-4.7 7.186-9.926 10.437-15.188z"/><path fill="#2a6c8e" d="M110 188c-4.868 5.647-11.106 7.17-18.082 8.863L90 197l-2-2c7.375-4.968 12.966-8.26 22-7"/><path fill="#5d5495" d="m186 139 2 2-2.437 1.875c-2.602 1.867-2.602 1.867-3.563 4.125-2.322.407-4.657.744-7 1l-1 3-9 1c2.522-2.522 4.197-3.824 7.23-5.48l2.432-1.338 2.525-1.37 2.561-1.404q3.123-1.71 6.252-3.408"/><path fill="#12313f" d="M133 186a2531 2531 0 0 1-7.687 4.875l-2.186 1.395c-9.51 5.992-9.51 5.992-13.44 5.355L108 197c5.485-4.028 10.608-7.619 17-10l2.75-1.25C130 185 130 185 133 186"/><path fill="#080910" d="m205 142 3 1-1.437 2.75c-1.21 2.514-2.043 4.546-2.563 7.25l-1.812.313c-2.503.786-3.401 1.822-5.188 3.687l-3 1-1-2h2v-2h2l2-6h2l1-3 3-1z"/><path fill="#192a3e" d="M86 67c2.29 3.435 2.178 4.985 2 9l-2-1q-1.909 1.402-3.812 2.813l-2.145 1.582A46.6 46.6 0 0 0 75 84c0-4.22 1.852-6.668 4.563-9.812C81 73 81 73 83 73l.375-2.437L84 68z"/><path fill="#3f1544" d="m204 125 2 1c-2.875 6.75-2.875 6.75-4 9h-2l-.812 1.938C198 139 198 139 195 140l-2 3h-2c1.335-3.594 2.691-6.922 5-10 2.688-.812 2.688-.812 5-1l1-3c.651-1.34 1.315-2.676 2-4"/><path fill="#0c5963" d="M115 191c-16.005 9.067-16.005 9.067-24 10l-3-1v-1h8v-2a741 741 0 0 1 7.25-3.562l2.066-1.038c3.706-1.78 5.763-2.706 9.684-1.4"/><path fill="#0a4750" d="m115 190 3 1c-16.298 11.674-16.298 11.674-22 12l-2-2h3v-2l1.545-.719q3.447-1.606 6.892-3.219l2.432-1.13 2.315-1.084 2.142-1c1.663-.733 1.663-.733 2.674-1.848"/><path fill="#cd3dce" d="M117 81c5.052 2.061 9.731 4.433 14.438 7.188l1.927 1.115Q135.685 90.647 138 92v3c-7.562-3.63-14.797-7.705-22-12z"/><path fill="#151223" d="M85 62h5v4h-2l-1 4-1-2-3 5-3-1c0-3 0-3 1-6h2z"/><path fill="#1c2b42" d="M195 139h2c-.376 2.782-.673 4.588-2.437 6.813C193 147 193 147 191 147l-.562 1.688c-2.102 3.38-5.145 5.163-8.438 7.312.75-1.875.75-1.875 2-4l2.063-.875L188 150l.5-3 .5-3c1.938-1.187 1.938-1.187 4-2z"/><path fill="#320d33" d="M206 122c1.804 2.76 2.013 3.89 1.625 7.25L207 132h-2l-.687 1.625c-1.747 3.16-3.953 5.643-6.313 8.375l-2-1a125 125 0 0 1 4-6h2l.621-2.082.816-2.73.81-2.708c.557-1.835 1.146-3.66 1.753-5.48"/><path fill="#4a3b73" d="M196 134c-2.491 6.115-7.605 9.613-13 13 0-3 0-3 2-5.062l2-1.938v-2c6.75-4 6.75-4 9-4"/><path fill="#08080f" d="m79 60 6 1c-1.482 4.692-1.482 4.692-4 6.188L79 68l-2 2-2-4z"/><path fill="#115664" d="m86 77 2 2c-.187 2.063-.187 2.063-1 4l-3 1a172 172 0 0 0-2 7l-2 2c-.648 2.57-.648 2.57-1 5l-2-1c1.823-7.516 4.758-13.548 9-20"/><path fill="#226883" d="m86 82 2 1v8l-1-2-2 1-1 3-3-1q.676-2.222 1.375-4.437l.773-2.497C84 83 84 83 86 82"/><path fill="#1f91ac" d="M85 165h1c2.308 6.348 2.198 12.295 2 19l-2 1c-1.056-4.283-1.117-8.43-1.062-12.812l.013-2.1q.02-2.544.049-5.088"/><path fill="#30587e" d="M115 183c2.063.438 2.063.438 4 1-4.234 4.94-9.13 7.321-15 10v-2l5-3a141 141 0 0 0 5-5z"/><path fill="#200f27" d="M205 132h2l-.5 1.813c-.611 2.3-.611 2.3-.5 5.187l-1 3-5 1v2h-2c1.342-5 3.484-9.19 7-13"/><path fill="#b131b2" d="M175 111c5.268.32 8.541 3.274 12 7 1.438 2.875 1.438 2.875 2 5l-2 1-2-1 1-4-1.562-.687c-3.348-1.803-6.477-3.926-9.438-6.313z"/><path fill="#263f5e" d="M190 141c0 4.33-2.227 5.944-5.043 9.059-2.475 2.455-4.955 4.184-7.957 5.941l-2-1z"/><path fill="#247b98" d="M85 89h2l1 7-2 1a78 78 0 0 0-2 5h-1a268 268 0 0 1-.125-4.25l-.07-2.39c.212-2.567.908-4.152 2.195-6.36"/><path fill="#5e1860" d="m113 65 2 2-2.668-.105-3.52-.082-3.48-.106c-3.63.32-5.341 1.313-8.332 3.293-2.312-.312-2.312-.312-4-1 6.734-4.855 11.929-5.824 20-4"/><path fill="#1a1e33" d="M199 140c0 3.699-.844 4.358-3.25 7.063l-1.828 2.097c-1.892 1.811-3.528 2.818-5.922 3.84l3-6h2l1-3h2v-2z"/><path fill="#18374a" d="m86 74 2 2-1 3-1-1-1.375 1.5C83 81 83 81 81 81c-1.645 2.463-1.645 2.463-3 5l-2-1c1.326-5.637 5.466-7.932 10-11"/><path fill="#187989" d="M102 192c-2.308 2.694-4.112 3.568-7.562 4.313l-2.38.55L90 197l-2-2c5.01-3.006 8.327-3.293 14-3"/><path fill="#0c2630" d="M83 72c0 3.803-1.138 4.777-3.5 7.688l-1.969 2.449L76 84l-2-2c2.564-4.179 5.02-7.125 9-10"/><path fill="#712678" d="M112 68v1a477 477 0 0 1-5.687 1.563l-3.2.878c-3.12.56-5.09.406-8.113-.441 4.355-4.355 11.229-3.1 17-3"/><path fill="#a22ba4" d="M177 110c4.999 1.617 9.452 4.216 12.047 8.883.72 1.678 1.345 3.395 1.953 5.117h-3l-.25-1.687c-1.812-5.586-5.983-8.28-10.75-11.313z"/><path fill="#071b20" d="m78 71 3 1c-1.453 3.83-3.429 5.12-7 7 .498-3.688 1.1-5.605 4-8"/><path fill="#5f1961" d="M195 114c3.362 2.758 5.31 4.832 6 9.125 0 3.875 0 3.875-1.437 5.875L198 130l-1-2h2c-.99-4.836-1.957-9.476-4-14"/><path fill="#6466a6" d="m175 146-1 5-9 1c6-6 6-6 10-6"/><path fill="#0f4653" d="M81 80h2c-.665 4.389-2.188 7.981-4 12l-2-1c1.75-7.625 1.75-7.625 4-11"/><path fill="#3a1a42" d="M97 63c-.687 1.938-.687 1.938-2 4-2.5.875-2.5.875-5 1l-2-2c3.44-2.294 4.723-3 9-3"/><path fill="#1c5066" d="M115 191c-4.428 2.745-7.719 4.485-13 5v-2c1.41-.702 2.828-1.386 4.25-2.062l2.39-1.16c2.62-.864 3.809-.708 6.36.222"/><path fill="#43719f" d="M114 185c-3.184 2.816-5.755 3.723-10 4l-2-2c3.658-2.11 8.012-3.994 12-2"/><path fill="#47275b" d="m198 132 1 3h-2l-.875 2.313C195 140 195 140 193 143h-2c3.421-9.21 3.421-9.21 7-11"/><path fill="#2f274b" d="M195 139h2l-1 5h-4v2l-4 1c.813-1.937.813-1.937 2-4l3-1z"/><path fill="#244763" d="m86 77 2 2c-.062 2-.062 2-1 4-2.562 1.25-2.562 1.25-5 2 1.125-2.972 2.223-5.334 4-8"/><path fill="#633f7b" d="M196 134c-1.098 2.993-1.677 3.846-4.625 5.25L189 140l-2-2c6.75-4 6.75-4 9-4"/><path fill="#5d75ab" d="m114 180 2 1-1 3c-3.062 1.188-3.062 1.188-6 2l-2-2c5.273-3.223 5.273-3.223 7-4"/><path fill="#2e173a" d="m202 133 1 3c-1.404 2.264-3.197 4.02-5 6l-2-1a125 125 0 0 1 4-6h2z"/><path fill="#126979" d="M104 194a419 419 0 0 1-4.375 2.063l-2.46 1.16L95 198l-2-1v-2c7.625-2.125 7.625-2.125 11-1"/><path fill="#363861" d="M190 141c0 3.908-1.506 5.116-4 8l-3-1z"/><path fill="#89308e" d="m192 120 3 1 1 6-2 1-2-1z"/><path fill="#184053" d="M118 191a466 466 0 0 1-3.375 2.5l-1.898 1.406C111 196 111 196 109 196c1-3 1-3 3.375-4.75C115 190 115 190 118 191"/><path fill="#505a97" d="M171 151v2l-6 3v-4c2-1 2-1 6-1"/><path fill="#1d1c33" d="m86 67 2 3-1 3-3 1c-1-3-1-3 0-6z"/><path fill="#3689a0" d="m100 188 2 1v2h-2v2l-5-1z"/><path fill="#235976" d="m86 82 2 1c-1 3-1 3-3.062 4.188L83 88c.375-2.437.375-2.437 1-5z"/><path fill="#592564" d="M99 65h2c-.625 1.938-.625 1.938-2 4-3.125.75-3.125.75-6 1l2.438-1.937C97.275 66.594 97.275 66.594 99 65"/><path d="m152 255 3 1Zm-51 0 3 1Zm63-3 3 1ZM157 1l3 1Zm-5-1 3 1Zm-51 0 3 1Zm56 254 2 1Zm-60 0 2 1Zm64-1 2 1Zm-72-1 2 1Zm79-1 2 1Zm-82 0 2 1Zm84-1 2 1Zm-86 0 2 1Zm89-1 2 1Zm-92 0 2 1Zm99-3 2 1Zm12-6 2 1ZM76 8l2 1Zm97-2 2 1ZM81 6l2 1Zm83-3 2 1ZM90 3l2 1Zm71-1 2 1ZM93 2l2 1Zm4-1 2 1Z"/></svg>