<svg xmlns="http://www.w3.org/2000/svg" width="240" height="240" style="shape-rendering:geometricPrecision;text-rendering:geometricPrecision;image-rendering:optimizeQuality;fill-rule:evenodd;clip-rule:evenodd"><path fill="#f9f9f9" d="M-.5-.5h240v240H-.5z" style="opacity:1"/><path fill="#ec6457" d="M159.5 49.5q30.43.678 29.5 31a36.3 36.3 0 0 1-4 11q-9.085 13.096-23.5 19.5-34.352 2.145-31.5-32.5a35.2 35.2 0 0 1 5-10L149.5 54q4.973-2.745 10-4.5" style="opacity:1"/><path fill="#fac731" d="M78.5 49.5q9.093 1.323 15 8.5a162 162 0 0 1 13 6q2.247 3.626 2 8a558 558 0 0 0-.5 27.5 60.1 60.1 0 0 1-15.5 8.5q-12 15-24 0a162 162 0 0 0-13-6q-3.626-3.72-3-9 1.34-13.245.5-26.5a147.4 147.4 0 0 0 25.5-17" style="opacity:1"/><path fill="#57b570" d="M72.5 126.5q26.55-2.606 36.5 22 4.281 43.215-38.5 39.5-30.87-15.804-16.5-47.5 7.272-9.746 18.5-14" style="opacity:1"/><path fill="#649cf3" d="M139.5 129.5a72.7 72.7 0 0 1 17.5 4 314 314 0 0 0 13.5-4q13.024 2.025 15 15a183 183 0 0 0-3 15 360 360 0 0 1 3 14.5q-1.724 13.724-15.5 15.5l-13-4a85 85 0 0 1-14.5 4q-12.536-2.785-14-15.5a360 360 0 0 1 3-14.5 28.8 28.8 0 0 0-2.5-11q-1.794-13.415 10.5-19" style="opacity:1"/></svg>