<svg xmlns="http://www.w3.org/2000/svg" viewBox="0 0 17 20"><path fill="#eaf801" d="M0 5.986C0 10.413 6.214 20 8.494 20c2.281 0 8.495-9.587 8.495-14.014C16.989 1.944 14.099 0 8.494 0 2.891 0 0 1.944 0 5.986"/><path fill="url(#paint0_linear_457_3220)" fill-opacity=".5" d="M0 5.986C0 10.413 6.214 20 8.494 20c2.281 0 8.495-9.587 8.495-14.014C16.989 1.944 14.099 0 8.494 0 2.891 0 0 1.944 0 5.986"/><path fill="#6fc13e" d="M8.912 5.343c3.702-2.063 4.4-1.125 3.158.482-1.168 1.512-2.287 3.282-2.148 5.997.104 2.048 1.688 3.239 3.267 3.48C11.454 17.947 9.556 20 8.5 20c-1.386 0-4.227-3.544-6.242-7.317 1.438-2.74 3.65-5.665 6.655-7.34"/><path fill="#00b78b" fill-opacity=".6" d="M8.912 5.343c3.702-2.063 4.4-1.125 3.158.482-1.168 1.512-2.287 3.282-2.148 5.997.104 2.048 1.688 3.239 3.267 3.48C11.454 17.947 9.556 20 8.5 20c-1.386 0-4.227-3.544-6.242-7.317 1.438-2.74 3.65-5.665 6.655-7.34"/><defs><linearGradient id="paint0_linear_457_3220" x1="8.495" x2="8.495" y1=".225" y2="20" gradientUnits="userSpaceOnUse"><stop stop-color="#eaf802"/><stop offset="1" stop-color="#00d296"/></linearGradient></defs></svg>