<svg xmlns="http://www.w3.org/2000/svg" xml:space="preserve" style="fill-rule:evenodd;clip-rule:evenodd;stroke-linejoin:round;stroke-miterlimit:2" viewBox="0 0 600 600"><path d="M334.8 390.6c3 2.1 2.8 2.7-1.8 6.4-5.3 4.2-16.6 8-23.7 8-6.6 0-16.2-2.6-17-4.6-1.1-3 6.7-8.4 12.1-8.4 1.2 0 3.9.9 6.1 2s4.3 2 4.8 2 2.7-1.6 5-3.5c3.2-2.8 4.9-3.5 8.2-3.5 2.2 0 5.1.7 6.3 1.6" style="fill:#fba2c9"/><path d="M402.7 436.5c3.2 2.3 4.6 8.4 3.4 15-3.2 17.5-18.6 29.4-47.7 37-15.1 4-28.8 5.5-50.6 5.5-37.2 0-58.3-4.6-73.4-16.1-11.9-9.1-16.7-22.5-12.2-34.2 1.6-4.2 4.4-4.2 14.8-.1 11 4.3 22.5 7.6 34.8 10 13.1 2.6 58.7 2.6 72.7 0 18.2-3.4 30.2-7 43-13.1 13.4-6.3 12.4-6 15.2-4" style="fill:#fff"/><path d="M374 108.2c5.7 2.6 12.4 9 15.7 14.9 1.5 2.8 1.8 5.6 1.7 16.9 0 14.7-.6 17.9-7.9 45.5-14 53-15.5 63.7-10 72.1 2.2 3.4 7.5 5.5 11.7 4.7 5.3-1 14.2-11.1 21.8-24.4 18.4-32.5 27-40.9 42.3-40.9 3.5 0 7.9.5 9.8 1.1 5.1 1.7 11.3 6.8 14.5 11.9 2.6 4.1 2.9 5.3 2.9 13.5 0 13.5-1.7 16.6-26.4 48-13.4 17.1-14.8 22-16.1 55.5-1 25.6-1.7 31.7-5.6 46.5-5.2 19.8-10.9 30.1-24.4 43.5-11.5 11.5-16.1 14.3-32.5 19.8-23.7 8-52.3 10.9-83.5 8.5-18.2-1.4-23.9-2.5-38.5-7.4-27.4-9.3-41.3-20.4-59.7-47.9-14.7-21.8-27.7-38.4-43-54.6-27-28.5-31.9-50.6-15-67.2 8.8-8.7 19.4-12.6 32.3-12.1 16.3.7 26.4 8.8 43.6 34.8 10.3 15.5 10.3 15.3 4.2 24.7-4.1 6.3-4.3 9.4-.8 9.4 3 0 10.7-8.4 13.7-14.8 3.6-7.7 3.7-21 .3-32.2-6.1-19.9-11.6-35.8-20.1-57.5-.4-1.1-3.5-8.8-6.8-17-14.7-36.9-17.3-45.8-17.4-59.8 0-16.4 6.3-25.6 22-31.6 7.8-3.1 21.9-2.9 28.7.3 15 7 21.2 20.8 31 69.6 7.3 35.9 11 47.1 17.5 53.5 3.8 3.7 4.5 4 10 4 5.1 0 6.3-.4 8.9-2.9 2.7-2.6 6.9-10 8.6-15.1 2.1-6.4 4.7-21.9 6.5-38.5 4-37.7 5.8-47.4 10.3-57.3 4.3-9.4 12.4-16.8 21.7-19.8 1.4-.5 7-.7 12.5-.5 8.1.2 11 .7 15.5 2.8M344 365c-1.4.4-5.3 2.6-8.8 4.8-3.5 2.3-8.9 4.9-12 5.8-6.7 2-20.3 2.3-25.8.6-2.2-.6-7.5-2.3-11.9-3.7-13.4-4.2-16.5-3.1-16.5 5.7 0 4 .7 6.2 3.6 10.9 6.2 10.3 17.3 17.5 30.7 19.9 17.5 3.2 36.1-7.1 45.1-25 3.5-7.1 4.7-13.9 2.8-16.6-1.3-2-4.7-3.1-7.2-2.4m-4-116.1c-2.4 1.6-6 5.3-8 8.3-4.4 6.6-8.7 19.4-7.3 21.7.6.9 5.8 4.1 11.6 7.1 12 6.3 13.6 7.5 12 9.1-.6.6-6 4.2-12 7.9l-10.8 6.8.1 4.9c.3 9.2 7.7 21.4 15.4 25.3 12.8 6.5 25-3.9 30.6-26 2.1-8.6 2.1-30.1-.1-39.5-5.2-22.8-19-34-31.5-25.6m-78.5-1c-7.8 4.9-15.1 17.5-15.7 27.5-.3 4.4.5 5.1 9.7 9.8 8.1 4.1 13.5 7.6 13.5 8.7 0 .5-5.2 4.2-11.5 8.3-10.8 6.9-11.5 7.5-11.5 10.6 0 3.7 4.3 15.2 6.9 18.5 6.7 8.7 13.5 12 19.9 9.7 8.5-3 13.5-9.1 17.9-21.6 2.5-7.4 2.7-9 2.7-25.9.1-17.3 0-18.3-2.8-26.1-5-14.3-12.3-21.4-21.8-21.4-2.5 0-5.6.8-7.3 1.9" style="fill:#fff"/><path d="M3446 5024c-113-31-225-127-277-239-56-122-76-217-114-540-43-364-70-482-124-529-41-37-81 6-124 134-24 71-48 172-108 465-86 421-160 561-339 647-60 30-73 32-175 32-65 1-126-4-150-12-237-78-350-264-315-518 19-139 58-254 238-695 44-107 92-229 105-270 14-41 30-85 35-99 18-44 52-165 52-183 0-9-4-17-9-17-12 0-21 10-95 102-76 93-137 144-223 187-89 46-98 48-163 55-144 14-304-47-404-155-178-192-171-420 19-669 23-30 91-109 150-175 152-168 251-295 357-453 137-206 189-271 272-342 41-35 77-69 80-76 4-11 1-27-26-129-16-63-3-172 28-235 37-77 146-179 237-223 179-85 405-127 682-127 455 1 797 94 970 265 45 45 81 91 100 130 26 54 29 70 29 165 1 89-2 112-21 152-13 26-23 52-23 56 0 5 33 53 74 107 80 105 132 204 170 318 57 170 72 272 86 577 6 118 15 238 20 265 16 80 63 162 166 290 199 248 249 348 242 491-5 96-36 169-98 233-179 185-439 154-619-73-27-34-75-108-108-166-122-213-155-262-191-282-19-10-25-10-33 2-15 22-4 160 22 270 12 52 25 111 29 130s28 114 53 210c75 289 89 370 90 510 0 113-2 130-26 182-52 115-127 183-248 224-81 28-209 31-293 8m294-106c57-26 124-90 157-149 15-28 18-56 17-169 0-147-6-179-79-455-140-530-155-637-100-721 22-34 75-55 117-47 53 10 142 111 218 244 184 325 270 409 423 409 35 0 79-5 98-11 51-17 113-68 145-119 26-41 29-53 29-135 0-135-17-166-264-480-134-171-148-220-161-555-10-256-17-317-56-465-52-198-109-301-244-435-115-115-161-143-325-198-237-80-523-109-835-85-182 14-239 25-385 74-274 93-413 204-597 479-147 218-277 384-430 546-270 285-319 506-150 672 88 87 194 126 323 121 163-7 264-88 436-348 103-155 103-153 42-247-41-63-43-94-8-94 30 0 107 84 137 148 36 77 37 210 3 322-61 199-116 358-201 575-4 11-35 88-68 170-147 369-173 458-174 598 0 164 63 256 220 316 78 31 219 29 287-3 150-70 212-208 310-696 73-359 110-471 175-535 38-37 45-40 100-40 51 0 63 4 89 29 27 26 69 100 86 151 21 64 47 219 65 385 40 377 58 474 103 573 43 94 124 168 217 198 14 5 70 7 125 5 81-2 110-7 155-28m287-3283c32-23 46-84 34-150-32-175-186-294-477-370-151-40-288-55-506-55-372 0-583 46-734 161-119 91-167 225-122 342 16 42 44 42 148 1 110-43 225-76 348-100 131-26 587-26 727 0 182 34 302 70 430 131 134 63 124 60 152 40" style="fill-rule:nonzero" transform="matrix(.1 0 0 -.1 0 600)"/><path d="M2615 3521c-78-49-151-175-157-275-3-44 5-51 97-98 81-41 135-76 135-87 0-5-52-42-115-83-108-69-115-75-115-106 0-37 43-152 69-185 67-87 135-120 199-97 85 30 135 91 179 216 25 74 27 90 27 259 1 173 0 183-28 261-50 143-123 214-218 214-25 0-56-8-73-19m785-10c-24-16-60-53-80-83-44-66-87-194-73-217 6-9 58-41 116-71 120-63 136-75 120-91-6-6-60-42-120-79l-108-68 1-49c3-92 77-214 154-253 128-65 250 39 306 260 21 86 21 301-1 395-52 228-190 340-315 256m40-1161c-14-4-53-26-88-48-35-23-89-49-120-58-67-20-203-23-258-6-22 6-75 23-119 37-134 42-165 31-165-57 0-40 7-62 36-109 62-103 173-175 307-199 175-32 361 71 451 250 35 71 47 139 28 166-13 20-47 31-72 24m-92-256c30-21 28-27-18-64-53-42-166-80-237-80-66 0-162 26-170 46-11 30 67 84 121 84 12 0 39-9 61-20s43-20 48-20 27 16 50 35c32 28 49 35 82 35 22 0 51-7 63-16" style="fill-rule:nonzero" transform="matrix(.1 0 0 -.1 0 600)"/></svg>