<svg xmlns="http://www.w3.org/2000/svg" width="800" height="800" fill="none" viewBox="0 0 24 24"><path stroke="#000" stroke-linecap="round" stroke-linejoin="round" stroke-width="2" d="M5 9h14m-4 9v-3m-6 3h.01M12 18h.01M12 15h.01M9 15h.01M15 12h.01M12 12h.01M9 12h.01m-.81 9h7.6c1.12 0 1.68 0 2.108-.218a2 2 0 0 0 .874-.874C19 19.48 19 18.92 19 17.8V6.2c0-1.12 0-1.68-.218-2.108a2 2 0 0 0-.874-.874C17.48 3 16.92 3 15.8 3H8.2c-1.12 0-1.68 0-2.108.218a2 2 0 0 0-.874.874C5 4.52 5 5.08 5 6.2v11.6c0 1.12 0 1.68.218 2.108a2 2 0 0 0 .874.874C6.52 21 7.08 21 8.2 21"/></svg>