<svg xmlns="http://www.w3.org/2000/svg" id="Layer_2" width="800" height="800" data-name="Layer 2" viewBox="0 0 48 48"><path d="M8.37 42.21a2.6 2.6 0 0 1-.67.11 2.17 2.17 0 0 1-2.16-2.19 2.13 2.13 0 0 1 .62-1.51l14.7-14.71 3 3-8.16 8.2 12.32-4 3.42 3.43Zm33.05-.77a2.15 2.15 0 0 1-3 0h0L6.41 9.43a2.16 2.16 0 0 1 3.05-3.06h0l32 31.94a2.15 2.15 0 0 1 0 3v.08Zm-.51-10.12L36 32.93l-3.42-3.42 7-2.3a2.16 2.16 0 0 1 1.54 4Z" style="fill:none;stroke:#000;stroke-linecap:round;stroke-linejoin:round"/></svg>