<svg xmlns="http://www.w3.org/2000/svg" width="128" height="128" style="shape-rendering:geometricPrecision;text-rendering:geometricPrecision;image-rendering:optimizeQuality;fill-rule:evenodd;clip-rule:evenodd"><path fill="#04aff9" d="M52.5-.5h22q43.174 10.674 53 54v14l-54-53q-6.61-11.937-12.5 1A41 41 0 0 0 58.5 27 50.9 50.9 0 0 1 60 43.5a73.3 73.3 0 0 0-15 20q-3.665 29.815 26 31a42.1 42.1 0 0 1 1 16q-4.118 8.59-12 4 3.35-2.226 4.5-7-2.052-6.867-9-4.5-6.903 8.906 3 14.5-.658-.098-1 .5a120 120 0 0 1 9 9.5h-14Q10 117-.5 74.5v-22Q10 10 52.5-.5" style="opacity:1"/><path fill="#eff6f9" d="M73.5 14.5q5.475 21.294-9 37.5a80 80 0 0 1 2 9.5q18.841 1.122 15.5 20-1.3 6.55-7.5 9l-1 3.5a152 152 0 0 1 2 12q-1.425 16.173-17 11.5-9.903-5.594-3-14.5 6.948-2.367 9 4.5-1.15 4.774-4.5 7 7.882 4.59 12-4a42.1 42.1 0 0 0-1-16q-29.665-1.185-26-31a73.3 73.3 0 0 1 15-20A50.9 50.9 0 0 0 58.5 27 41 41 0 0 1 61 15.5q5.89-12.937 12.5-1" style="opacity:1"/><path fill="#0395d3" d="m73.5 14.5 54 53v6q-9.826 43.326-53 54h-8a120 120 0 0 0-9-9.5q.342-.598 1-.5 15.575 4.673 17-11.5a152 152 0 0 0-2-12l1-3.5q6.2-2.45 7.5-9 3.341-18.878-15.5-20a80 80 0 0 0-2-9.5q14.475-16.206 9-37.5" style="opacity:1"/><path fill="#1ab2f9" d="M67.5 18.5q1.983-.255 3.5 1 1 4.5 0 9-12.097 25.148-8-3 1.518-4.053 4.5-7" style="opacity:1"/><path fill="#22b3fa" d="M61.5 53.5q1.63.18 2 2 1.68 4.045 0 8-15.819 10.939 0 22 .87-1.611-1.5-3-4.224-8.29 3.5-13 4.346 9.95 3 20.5-24.224.26-18.5-23.5 4.477-7.72 11.5-13" style="opacity:1"/><path fill="#24b3fa" d="M68.5 69.5q5.99-.383 8.5 5 2.532 8.716-4.5 14a576 576 0 0 1-4-19" style="opacity:1"/></svg>