<svg xmlns="http://www.w3.org/2000/svg" width="512" height="512" style="shape-rendering:geometricPrecision;text-rendering:geometricPrecision;image-rendering:optimizeQuality;fill-rule:evenodd;clip-rule:evenodd"><path fill="#961383" d="M35.5-.5h440q28.818 8.816 36 38v436q-7.182 29.184-36 38h-440q-28.818-8.816-36-38v-436q7.182-29.184 36-38" style="opacity:1"/><path fill="#f8f7f8" d="M202.5 44.5q33.972-3.26 58.5 20 34.084-26.21 72.5-6.5 30.652 24.363 14.5 60.5-7.365 18.615-25.5 27a1987 1987 0 0 0-1.5 63 11.5 11.5 0 0 1-3.5 4.5q-58 1-116 0-3.472-1.664-4.5-5.5l-1-58q-26.252-15.518-37-44-4.847-22.46 10-40 13.476-16.094 33.5-21" style="opacity:1"/><path fill="#961483" d="M204.5 60.5q25.328-2.427 44 14.5a163 163 0 0 0-19.5 25.5q.749 14.384 14 8 14.905-25.905 41.5-39.5 21.954-8.087 42 4 13.962 11.697 9.5 29.5-3.98 20.458-22.5 29.5a136.6 136.6 0 0 1-37 9 836 836 0 0 1-44 2q-8.557 8.721 2 15 35.975 2.92 71-5.5v45h-92q.25-27.005-.5-54a17.8 17.8 0 0 0-4.5-5.5q-21.832-11.332-32.5-33.5-5.256-16.29 6-29 9.132-10.917 22.5-15" style="opacity:1"/><path fill="#f8f6f8" d="M142.5 199.5a8369 8369 0 0 1 113 49 8369 8369 0 0 1 113-49q.924 12.659-2 24.5a13422 13422 0 0 0-111 26.5 6835 6835 0 0 0-113-26z" style="opacity:1"/><path fill="#f9f9f9" d="M104.5 232.5a10946 10946 0 0 0 142 33v201a16324 16324 0 0 1-141-33q-1.5-100.495-1-201m299 0h3v201l-142 33v-201a21454 21454 0 0 0 139-33" style="opacity:1"/></svg>