<svg xmlns="http://www.w3.org/2000/svg" viewBox="0 0 25 24"><circle cx="12.441" cy="11.995" r="11.867" style="fill:#101828"/><path d="M12.44 2.917a9.07 9.07 0 0 0-3.526 17.428.95.95 0 0 1-.74 1.75c-3.936-1.664-6.702-5.562-6.702-10.108 0-6.058 4.91-10.969 10.968-10.969s10.97 4.911 10.97 10.969c0 4.546-2.767 8.444-6.704 10.108a.95.95 0 1 1-.738-1.75A9.073 9.073 0 0 0 12.44 2.917" style="fill:url(#_Linear1)"/><path d="M6.482 8.339a.95.95 0 0 1 1.257.471l1.919 4.221 1.918-4.221a.95.95 0 0 1 1.729 0l1.919 4.221 1.918-4.221a.95.95 0 0 1 1.729.787l-2.783 6.122a.948.948 0 0 1-1.729 0l-1.919-4.22-1.918 4.22a.948.948 0 0 1-1.729 0L6.01 9.597a.95.95 0 0 1 .472-1.258" style="fill:#fff"/><defs><linearGradient id="_Linear1" x1="0" x2="1" y1="0" y2="0" gradientTransform="rotate(-46.194 26.727 9.36)scale(28.7383)" gradientUnits="userSpaceOnUse"><stop offset="0" style="stop-color:#7a5af8;stop-opacity:1"/><stop offset="1" style="stop-color:#f63d68;stop-opacity:1"/></linearGradient></defs></svg>