<svg xmlns="http://www.w3.org/2000/svg" width="96" height="96" fill="none" viewBox="0 0 96 96"><g clip-path="url(#clip0_733_6044)"><path fill="#491c84" d="M89.24.836H6.722a5.87 5.87 0 0 0-5.87 5.87v82.518a5.87 5.87 0 0 0 5.87 5.87H89.24a5.87 5.87 0 0 0 5.87-5.87V6.706a5.87 5.87 0 0 0-5.87-5.87"/><path fill="url(#paint0_linear_733_6044)" d="M89.224.852H6.706a5.87 5.87 0 0 0-5.87 5.87V89.24a5.87 5.87 0 0 0 5.87 5.87h82.518a5.87 5.87 0 0 0 5.87-5.87V6.722a5.87 5.87 0 0 0-5.87-5.87" style="mix-blend-mode:soft-light"/><path fill="#fff" d="m30.203 76.145 8.837-6.031-8.967-7.112-3.87 9.982zm-4.274-1.967-1.339 3c-.516 1.209-.677 2.386-.468 2.547s1.403-.258 2.371-1.032l2.613-2zm43.397-42.299 3.241-4.097a2.283 2.283 0 0 0-.37-3.209l-5.387-4.257a2.28 2.28 0 0 0-3.21.37l-3.24 4.097 8.966 7.112zm-10.748-4.864L31.03 61.77l8.973 7.111L67.55 34.127z"/></g><defs><linearGradient id="paint0_linear_733_6044" x1="2.561" x2="93.369" y1="93.4" y2="2.561" gradientUnits="userSpaceOnUse"><stop stop-color="#f46660"/><stop offset=".3" stop-color="#f79490"/><stop offset=".6" stop-color="#fbcdcb"/><stop offset=".9" stop-color="#fef1f0"/><stop offset="1" stop-color="#fff"/></linearGradient><clipPath id="clip0_733_6044"><path fill="#fff" d="M0 0h96v96H0z"/></clipPath></defs></svg>