<svg xmlns="http://www.w3.org/2000/svg" xml:space="preserve" id="_x32_" width="800" height="800" viewBox="0 0 512 512"><path d="M505.239 200.77c-7.154-24.514-20.861-49.314-44.076-67.913-23.168-18.646-55.452-30.354-96.99-30.284-13.176 0-23.761-1.469-32.553-3.853-15.345-4.224-25.56-11.023-35.445-19.992-7.361-6.722-14.33-14.776-22.168-23.407-11.731-12.884-25.699-27.176-46.298-37.83C207.109 6.8 180.494.146 144.404.176 64.644.184.007 64.821 0 144.58v305.691c.007 33.999 27.545 61.536 61.56 61.552h388.88c34.015-.016 61.552-27.554 61.56-61.552V248.554c-.008-15.023-1.969-31.399-6.761-47.784M124.542 480.317H61.56c-8.353-.008-15.769-3.339-21.253-8.8-5.462-5.492-8.793-12.9-8.8-21.246V313.675h65.22v98.328c0 7.7 6.246 13.962 13.954 13.962h13.862v54.352zm124.366 0h-110.19v-54.352h15.453c7.708 0 13.954-6.261 13.954-13.962v-98.328h52.968v98.328c0 7.7 6.246 13.962 13.954 13.962h13.862zm124.373 0h-110.19v-54.352h15.454c7.699 0 13.946-6.261 13.946-13.962v-98.328h52.975v98.328c0 7.7 6.246 13.962 13.946 13.962h13.868zm107.212-143.435v113.389c-.008 8.346-3.338 15.753-8.8 21.246-5.484 5.461-12.9 8.792-21.253 8.8h-62.983v-54.352h15.461c7.707 0 13.954-6.261 13.954-13.962v-98.328h63.621z" style="fill:#000"/></svg>