<svg xmlns="http://www.w3.org/2000/svg" xml:space="preserve" id="svg1" width="200mm" height="563.01" viewBox="0 0 755.905 563.01"><g id="g1"><g id="g3" style="stroke-width:.2668" transform="translate(-28.148 -8.382)scale(3.74812)"><path id="path2" d="m174.974 39.7-6.86 2.771v4.274h-4.732v6.016h4.731v11.127c0 5.98 3.387 9.56 9.713 9.56h4.663v-6.29h-3.794c-2.613 0-3.724-1.426-3.724-3.725V52.761h8.579l8.553 20.688h5.974l11.109-26.867h-7.414l-6.68 17.443-6.616-17.28h-13.502z" style="opacity:1;fill:#fff200;fill-opacity:1;stroke-width:50.4189"/><path id="path3" d="M82.615 2.236A75.105 75.105 0 0 0 7.51 77.342a75.105 75.105 0 0 0 75.105 75.105 75.105 75.105 0 0 0 73.168-59.025 17.3 17.3 0 0 1-6.334 1.209c-9.578 0-17.344-7.763-17.344-17.342s7.766-17.344 17.344-17.344c2.3 0 4.49.457 6.498 1.27A75.105 75.105 0 0 0 82.615 2.236M66.416 51.844v42.13h-9.725v-38.2Zm55.232 0v8.758h8.08v8.935h-8.08v10.74c0 3.294 1.469 4.762 4.762 4.762h3.319v8.936h-4.83c-4.017 0-7.322-1.178-9.56-3.407-2.236-2.228-3.415-5.511-3.415-9.502V69.537h-5.985v-8.935h5.985v-4.829zm-84.912 8.103c9.043 0 16.127 7.633 16.127 17.375 0 4.659-1.626 9-4.58 12.225a15.5 15.5 0 0 1-11.547 5.082c-3.751 0-7.025-1.091-9.554-3.373v11.476h-9.723V63.867l7.863-3.176 1.342 3.248c2.563-2.619 6.01-3.992 10.072-3.992m65.395.66v18.258a15.767 15.767 0 1 1-31.533 0V64.871l9.658-3.902v18.176a6.108 6.108 0 1 0 12.217 0V64.51ZM35.25 69.322c-4.469 0-8.092 3.568-8.092 7.967 0 4.4 3.623 7.965 8.092 7.965s8.092-3.566 8.092-7.965-3.623-7.967-8.092-7.967m114.2 0a7.966 7.966 0 1 0-.001 15.931 7.966 7.966 0 0 0 0-15.93" style="opacity:1;fill:#fff200;fill-opacity:1;stroke-width:50.4191"/></g></g></svg>