<svg xmlns="http://www.w3.org/2000/svg" viewBox="0 0 512 512"><g id="surface1"><path d="M0 0h512v512H0z" style="fill:#0779ff;fill-opacity:0;stroke:none"/><path d="M236.574 457.969c-36.445-2.887-65.062-10.465-93.14-24.664-19.157-9.684-31.45-18.414-44.704-31.743-10.34-10.394-15.511-17.257-16.566-21.968-.863-3.852.7-6.203 4.117-6.203 2.215 0 5.887 2.109 12.133 6.972 27.25 21.207 65.293 36.586 107.512 43.453 39.351 6.403 79.351 5.618 119.976-2.351 13.262-2.602 24.973-5.66 37.012-9.668 9.059-3.016 14.938-5.438 24.16-9.965 6.113-3.004 7.969-3.727 9.961-3.879 2.332-.18 2.512-.121 3.758 1.246 1.926 2.106 1.855 4.785-.207 7.89-1.906 2.876-5.328 6.294-10.29 10.286-25.769 20.73-67.632 35.61-112.503 39.988-8.04.785-34.137 1.168-41.219.606m168.387-24.465c-2.555-2.242-2.117-4.703 2.07-11.649 5.59-9.265 10.278-20.437 11.453-27.285.985-5.742-.46-7.593-6.812-8.718-5.965-1.055-19.86-.317-28.594 1.52-1.613.339-4.527.616-6.476.616-3.192 0-3.645-.11-4.516-1.031-.535-.566-1.074-1.793-1.2-2.723-.195-1.464-.038-1.906 1.184-3.296 1.95-2.22 5.723-4.7 10.868-7.141 8.94-4.238 16.796-5.992 26.863-5.988 12.992.003 23.375 3.128 26.847 8.078 1.274 1.816 1.301 1.972 1.457 7.949.114 4.434-.039 7.144-.558 9.953-1.707 9.191-6.469 19.8-11.945 26.602-3.563 4.421-11.493 11.68-14.286 13.074-3.238 1.617-4.546 1.625-6.355.047Zm-182.934-95.39c-10.75-2.06-19.836-12.93-23.445-28.06-2.473-10.355-2.637-25.316-.39-35.75 2.972-13.812 9.667-23.843 18.738-28.066 11.539-5.37 23.527-2.043 30.648 8.508 1.172 1.738 2.317 3.047 2.54 2.91.25-.156.41-7.82.41-19.55 0-18.887.015-19.317.878-20.176.848-.852 1.281-.88 10.93-.754 7.305.09 10.195.273 10.582.664.988.988 1.117 9.781.922 63.445l-.195 53.246-.899.965c-.871.938-1.152.965-8.95.965-4.425 0-8.358-.121-8.741-.266-1.153-.441-1.82-2.273-2.844-7.789-.54-2.89-1.086-5.254-1.223-5.254-.136 0-.816 1.11-1.511 2.47-1.875 3.655-6.98 8.542-10.997 10.519-1.78.882-4.27 1.793-5.53 2.035-2.747.52-8.032.488-10.923-.063m18.84-20.34c6.961-3.372 10.692-14.598 9.918-29.836-.703-13.805-4.785-21.875-12.066-23.844-2.403-.653-3.145-.688-5.121-.246-6.934 1.55-10.84 7.855-12.266 19.785-.883 7.394-.375 16.047 1.305 22.254 1.68 6.21 4.52 10.226 8.566 12.101 2.453 1.137 7.086 1.035 9.664-.215m76.645 20.222c-4.246-.894-7.246-2.023-10.828-4.07-10.325-5.906-17.63-17.36-19.903-31.192-.926-5.656-.926-16.203 0-21.859 2.184-13.316 9.438-25.277 19.117-31.535 5.082-3.285 13.133-5.63 19.344-5.63 3.598 0 9.528 1.138 13.04 2.5 8.53 3.313 16.077 11.235 20.35 21.356 2.872 6.801 4.052 13.137 4.126 22.149.047 6.043-.028 6.805-.762 7.62-.816.907-.898.911-26.086.911h-25.27v1.465c0 2.625 1.204 7.836 2.563 11.105 1.645 3.946 3.727 6.438 6.61 7.918 3.015 1.547 7.984 1.606 11.343.137 2.703-1.18 5.766-4.39 6.68-7.004.348-.996.902-2.586 1.226-3.531.528-1.524.766-1.73 2.118-1.848 1.914-.16 17.414 3.203 18.785 4.078 1.414.903 1.09 2.848-1.328 7.93-2.414 5.082-6.309 9.977-10.309 12.965-6.668 4.98-12.117 6.738-21.586 6.965-4.36.11-7.34-.028-9.23-.43m20.98-55.601c.461-.286.434-1.047-.152-4.165-1.414-7.566-4.406-12.668-8.567-14.605-6.375-2.969-13.527.852-16.586 8.855-1.425 3.723-2.535 9.286-1.968 9.852.558.563 26.37.621 27.273.063m64.555 55.562c-10.688-2.445-20.41-10.523-26.04-21.629-1.87-3.691-4.1-11.047-4.765-15.71-2.597-18.282 2.586-35.942 13.625-46.423 5.766-5.468 10.953-8.28 17.844-9.668 24.258-4.879 45.101 14.946 46.363 44.098.528 12.172-2.422 23.762-8.316 32.668-4.926 7.445-12.692 13.379-20.977 16.031-3.879 1.242-13.558 1.586-17.734.633m13.012-19.426c3.91-2.027 6.898-6.797 8.5-13.566.804-3.414.93-5.2.933-13.59.004-7.77-.14-10.293-.754-12.879-2.215-9.363-5.933-14.266-11.73-15.469-7.574-1.574-13.613 4.094-15.84 14.868-2.695 13.054-1.078 29.183 3.637 36.308 1.332 2.008 4.41 4.48 6.367 5.113 1.976.641 6.988.196 8.887-.785M94.05 335.645c-.84-.926-1.254-2.184-3.903-11.852a3476 3476 0 0 0-4.289-15.457q-3.262-11.583-6.437-23.188a3821 3821 0 0 0-8.192-29.457c-1.05-3.687-1.906-7.105-1.906-7.601 0-2.016 1.156-2.23 12.07-2.23 9.118 0 10.262.077 11.11.769.797.644 1.476 3.16 4.308 15.992 3.391 15.363 4.508 20.367 6.016 27.035 2.192 9.676 4.711 21.54 4.711 22.2 0 1.343.703-.032 1.246-2.446.555-2.469 1.688-7.637 7.078-32.207 5.692-25.957 6.59-29.695 7.32-30.426.606-.605 2.126-.718 10.887-.816 10.918-.121 12.2.078 12.47 1.953.116.84-1.364 6.39-7.911 29.637a6667 6667 0 0 0-9.25 33.574c-1.492 5.477-2.617 9.438-6.004 21.133-.457 1.582-1.129 3.176-1.496 3.543-.567.566-2.543.66-13.875.66-12.45 0-13.254-.047-13.953-.816m67-.079-1.137-.894.113-43.531c.106-41.114.157-43.579.88-44.301.679-.68 1.827-.781 10.39-.895 8.105-.11 9.832-.035 10.933.547l1.313.676v43.336c0 31.117-.137 43.637-.48 44.398-.266.582-.895 1.168-1.399 1.301-.5.137-5.09.25-10.195.25-8.758.008-9.344-.047-10.418-.887m6.746-96.53c-3.813-.99-7.633-4.563-8.899-8.329-.867-2.582-.886-6.789-.043-9.633.774-2.61 3.805-6.18 6.387-7.523 2.688-1.399 9.281-1.606 12.047-.383 3.211 1.422 5.219 3.277 6.656 6.152 1.18 2.36 1.313 3.028 1.305 6.535-.012 4.54-.809 6.782-3.344 9.415-2.543 2.64-5.261 3.8-9.297 3.968-1.898.078-4.066-.011-4.812-.207ZM65.672 216.78c-2.317-1.504-2.36-4.82-2.352-59.12 0-31.669.149-57.794.32-58.052.82-1.23 2.407-1.46 9.915-1.46 4.246 0 8.03.12 8.414.265 1.074.414 1.465 1.473 2.617 7.117.586 2.89 1.215 5.399 1.39 5.574.176.176.891-.785 1.587-2.132 1.496-2.899 6.027-7.602 8.976-9.32 5.152-3.005 10.883-4.141 16.484-3.266 13.032 2.023 22.102 13.144 26.133 32.035 1.004 4.695 1.27 20.7.446 26.836-1.461 10.875-5.614 20.957-11.016 26.742-5.504 5.895-10.496 8.379-17.613 8.77-5.098.28-8.387-.313-12.254-2.211-3.473-1.707-7.457-5.434-9.957-9.313-.89-1.383-1.762-2.512-1.942-2.516-.175 0-.32 8.391-.32 18.649 0 10.437-.176 19.11-.398 19.7-.649 1.706-2.442 2.015-11.368 1.96-4.511-.031-8.59-.137-9.062-.258m39.531-46.355c3.117-1.063 6.129-4.266 7.8-8.297 1.895-4.578 2.74-9.16 3.005-16.316.457-12.47-2.375-23.16-7.219-27.235-1.543-1.3-5.547-2.824-7.414-2.824-9.316 0-15.312 10.66-15.3 27.191.007 11.782 2.35 20.207 6.87 24.73 3.243 3.24 7.813 4.266 12.258 2.75m307.52 20.05c-14.86-2.683-26.47-14.218-30.543-30.34-5.489-21.734.507-44.609 14.687-56.03 13.395-10.786 32.63-10.762 44.895.062 5.363 4.727 8.468 9.207 11.445 16.492 2.465 6.035 3.457 11.18 3.734 19.434.13 3.82.114 7.43-.035 8.02-.64 2.546.668 2.425-26.683 2.425-13.786 0-25.168.168-25.293.371-.461.75 1.093 8.39 2.406 11.79 1.726 4.484 4.953 7.945 8.293 8.905 7.273 2.094 14.168-1.175 16.492-7.82 1.59-4.547 1.813-4.855 3.602-5.008 1.343-.105 11.191 1.844 17.175 3.403 2.497.652 2.73 1.836 1.168 5.879-1.816 4.699-4.093 8.394-7.253 11.77-7.02 7.491-14.563 10.651-26.032 10.898-3.304.074-6.933-.032-8.058-.243Zm20.297-56.706c0-4.336-2.758-12.282-5.31-15.301-1.757-2.078-5.124-3.578-7.976-3.555-4.55.031-8.007 2.152-10.523 6.441-1.645 2.81-3.48 8.2-3.922 11.532l-.289 2.187h28.02Zm-280.524 54.113-1.16-.914v-43.711c0-40.106.059-43.766.707-44.305.95-.789 16.012-1.098 17.781-.367 1.492.617 1.895 1.617 3.008 7.504.492 2.601 1.027 4.863 1.191 5.031.16.164.965-.992 1.79-2.578 1.82-3.512 6.261-8.148 9.261-9.664 5.004-2.527 12.32-3.195 17.934-1.64 3.547.984 5.008 2.214 5.008 4.222 0 1.437-2.86 13.492-4.13 17.41-.968 2.977-1.59 3.14-5.823 1.555-5-1.871-7.54-2.516-9.93-2.52-6.453-.015-10.512 3.38-12.61 10.547-.656 2.258-.77 5.715-.976 30.754-.188 22.305-.356 28.328-.793 28.77-.418.418-3.031.59-10.328.687-9.41.121-9.817.09-10.93-.785Zm63.414.445c-.496-.2-1.015-.66-1.156-1.023-.188-.485-.473-78.72-.32-86.676.043-2.203 1.398-2.48 12.171-2.48 10.637 0 10.864.058 11.047 2.788.047.711.063 20.372.04 43.692-.047 41.8-.06 42.414-.903 43.262-.812.808-1.414.855-10.414.832-5.258-.016-9.965-.192-10.46-.395Zm37.723-.031c-.535-.211-1.164-.89-1.395-1.5-.27-.707-.425-16.852-.425-43.945 0-36.297.093-42.957.609-43.665.558-.761 1.285-.843 8.832-.98 5.562-.105 8.61.016 9.418.352 1.297.535 1.453 1 2.984 8.691.41 2.059.867 3.867 1.016 4.016.152.152.953-1.07 1.777-2.711 2.696-5.352 7.137-9.364 12.543-11.336 2.016-.739 3.563-.938 7.48-.969 5.258-.047 7.368.43 11.805 2.656 2.899 1.45 7.442 6.11 9.414 9.649.887 1.593 1.743 2.894 1.899 2.886.156-.007.902-.921 1.66-2.039 3.977-5.863 9.754-10.48 15.297-12.226 4.351-1.367 11.312-1.348 15.398.047 8.785 2.988 13.973 9.535 17.203 21.715.895 3.374.926 4.367 1.07 35.675.126 27.75.06 32.325-.48 33.063-.593.808-1.207.867-10.445.992-9.422.14-9.863.11-10.961-.762l-1.144-.898-.145-29.078c-.14-28.664-.156-29.121-1.09-31.91-1.93-5.747-5.078-8.262-10.406-8.31-5.39-.046-9.195 2.86-11.2 8.563-1.429 4.063-1.675 9.25-1.679 35.317-.004 24.867-.023 25.46-.863 26.3-.805.81-1.43.86-10.332.86-9.684 0-10.73-.156-11.567-1.723-.304-.566-.449-9.757-.441-27.793.012-26.996-.137-30.261-1.563-34.64-2.015-6.196-9.593-8.852-15.722-5.516-3.922 2.137-6 6.531-6.758 14.277-.219 2.247-.402 15.235-.406 28.864L275.004 187l-.942.875c-.886.824-1.453.871-10.199.848-5.09-.016-9.695-.203-10.23-.422ZM222.187 91.3c-3.75-1.145-7.074-4.043-8.66-7.543-1.375-3.035-1.37-8.528.008-11.637 1.219-2.742 3.926-5.426 6.719-6.66 3.059-1.356 8.543-1.336 11.71.043 3.102 1.344 6.15 4.734 7.169 7.965 1.031 3.277.715 7.87-.766 11.101-1.297 2.832-4.508 5.535-7.699 6.485-2.297.68-6.648.812-8.48.25Zm0 0" style="stroke:none;fill-rule:nonzero;fill:#000;fill-opacity:1"/></g></svg>