<svg xmlns="http://www.w3.org/2000/svg" viewBox="0 0 20 20"><g fill="currentColor"><path d="M13.032 2.506c-.11.013-.483.056-.833.093-2.15.243-3 .623-3 1.35v.296l.513.007c.697.007.75.057 1.27 1.18.62 1.33 1.123 1.636 1.857 1.136.343-.233.586-.223.84.03.476.474-.05 1.14-1.067 1.347l-.41.083.617 1.31c.336.723.63 1.32.646 1.327.02.01.29-.02.607-.067 1.663-.237 3.866.987 3.24 1.803-.257.337-.61.333-1.024-.006-.62-.514-1.356-.744-2.033-.627-.41.07-.396.03-.266.913.133.91.06 2.337-.16 3.053-.084.273.84.33 1.543.094 2.183-.734 3.82-2.494 4.433-4.767.146-.55.153-.67.176-4.02l.027-3.449-.223-.22c-.617-.61-4.587-1.12-6.753-.866m3.593 4.062c.393.27.68.28 1.04.034.796-.544 1.51.243.8.883-.803.727-2.343.593-2.773-.237-.31-.596.35-1.076.933-.68"/><path d="M8.033 5.625C4.866 6.295.02 9.008.003 10.118c-.003.23 2.57 5.69 2.95 6.26 1.407 2.11 3.95 3.28 6.413 2.952.736-.096.976-.226 1.606-.88 1.917-1.98 2.423-4.886 1.3-7.439-.77-1.75-2.496-5.332-2.616-5.432-.19-.16-.714-.147-1.623.046m1.93 3.74c.38.18.483.626.213.936-.16.187-.2.194-.884.157-.34-.02-.59.14-.763.477-.316.623-1.13.483-1.13-.19 0-.97 1.607-1.833 2.563-1.38m-4.397 2.1c.717.353.283 1.166-.576 1.086-.48-.043-.697.07-.9.467-.34.656-1.27.396-1.13-.314.196-.983 1.686-1.693 2.606-1.24m4.906 1.923c.72.723-.956 2.63-2.62 2.983-1.576.333-3.03-.424-2.18-1.137.237-.2.31-.206.754-.073 1.16.353 2.463-.257 3.01-1.41.276-.59.67-.727 1.036-.363"/></g></svg>