<svg xmlns="http://www.w3.org/2000/svg" width="800" height="800" fill="none" viewBox="0 0 24 24"><path stroke="#000" stroke-linecap="round" stroke-linejoin="round" stroke-width="2" d="M19 4H9c-.93 0-1.395 0-1.776.102a3 3 0 0 0-2.122 2.122C5 6.605 5 7.089 5 8.019m0 0C5.314 8 5.702 8 6.2 8h11.6c1.12 0 1.68 0 2.108.218a2 2 0 0 1 .874.874C21 9.52 21 10.08 21 11.2v5.6c0 1.12 0 1.68-.218 2.108a2 2 0 0 1-.874.874C19.48 20 18.92 20 17.8 20H6.2c-1.12 0-1.68 0-2.108-.218a2 2 0 0 1-.874-.874C3 18.48 3 17.92 3 16.8v-5.6c0-1.12 0-1.68.218-2.108a2 2 0 0 1 .874-.874c.238-.121.516-.175.908-.199M14 12h4m-4 4h4m-8-2a2 2 0 1 1-4 0 2 2 0 0 1 4 0"/></svg>