<svg xmlns="http://www.w3.org/2000/svg" width="140" height="140"><path fill="#e9eef4" d="M-.5-.5h6a25.6 25.6 0 0 0-6 6z" style="opacity:1"/><path fill="#255cb4" d="M5.5-.5h127q4.386 1.88 7 6v128a25.7 25.7 0 0 1-6 6H4.5a1492 1492 0 0 1-5-6V5.5a25.6 25.6 0 0 1 6-6" style="opacity:1"/><path fill="#e4e9f2" d="M132.5-.5h7v6q-2.614-4.12-7-6" style="opacity:1"/><path fill="#e8953b" d="M100.5 20.5v3h15q1.401 1.602 1 4 3.438-.384 6.5 1 1.245 39.755-.5 79h-22v8q-.467 1.467-2 2a27 27 0 0 0-4.5-2q-2.698 1.506-5.5 1.5-1.416-4.078-1-8.5-9.23-.6-18 2a10.4 10.4 0 0 1-5-1.5q-24.36-.262-48.5-1.5a1560 1560 0 0 1 0-79q3.061-1.384 6.5-1-.32-2.466 1-4.5a289 289 0 0 1 34 0 40.4 40.4 0 0 1 12 3.5q8.486-4.083 18-3-.32-2.466 1-4.5a30.5 30.5 0 0 1 11 0q.834.575 1 1.5" style="opacity:1"/><path fill="#867b71" d="M100.5 20.5a69 69 0 0 0 15 3h-15z" style="opacity:1"/><path fill="#faf7f5" d="M27.5 27.5q16.508-.25 33 .5a38 38 0 0 1 6.5 2.5 794 794 0 0 1-.5 69 35.2 35.2 0 0 0-8-2q-15.23-1.492-31-1z" style="opacity:1"/><path fill="#faf6f3" d="M77.5 27.5h10v70q-7.75-.615-15 2a794 794 0 0 1-.5-69 87 87 0 0 1 5.5-3" style="opacity:1"/><path fill="#faf6f1" d="M101.5 27.5h11a1190 1190 0 0 1-1 69h-10z" style="opacity:1"/><path fill="#f3ca91" d="M27.5 27.5v69q15.77-.492 31 1h-32q-.495-35.26 1-70" style="opacity:1"/><path fill="#f3d1a3" d="M101.5 27.5v69h10q-5.193 1.473-11 1a1225 1225 0 0 1 1-70" style="opacity:1"/><path fill="#faf9f7" d="M22.5 32.5q-.25 34.004.5 68a958 958 0 0 1 40.5 2.5q-21.495.75-43 .5-.985-36.035 2-71" style="opacity:1"/><path fill="#faf9f6" d="M116.5 32.5q2.985 34.965 2 71a82 82 0 0 1-18-1q7.826-1.034 15.5-2 .75-33.996.5-68" style="opacity:1"/><path fill="#f2b56a" d="M116.5 32.5q1.064-1.356 3-1 .497 36.26-1 72 .985-36.035-2-71" style="opacity:1"/><path fill="#eea049" d="M34.5 35.5q12.01-.25 24 .5 2 2 0 4-12.03 1.248-24-.5-1.96-2.047 0-4" style="opacity:1"/><path fill="#f2af64" d="M22.5 32.5q-2.985 34.965-2 71a1297 1297 0 0 1-1-72q1.937-.356 3 1" style="opacity:1"/><path fill="#ee9f49" d="M34.5 44.5q12.01-.25 24 .5 2 2 0 4-11.5 1-23 0-3.072-1.839-1-4.5" style="opacity:1"/><path fill="#ed973a" d="M34.5 53.5q12.01-.25 24 .5 1.255 1.517 1 3.5h-25zm0 9q12.01-.25 24 .5 1.255 1.517 1 3.5-12.51.25-25-.5-1.776-1.718 0-3.5" style="opacity:1"/><path fill="#faf3e7" d="M78.5 101.5a21.1 21.1 0 0 1 9 1 24.55 24.55 0 0 1-12 .5q1.855-.348 3-1.5" style="opacity:1"/><path fill="#8c7a6e" d="M122.5 107.5q-10.22 1.487-21 1 .453 3.839-1 7v-8z" style="opacity:1"/><path fill="#eaecef" d="M-.5 133.5q2.456 2.962 5 6h-5z" style="opacity:1"/><path fill="#e7e9ec" d="M139.5 133.5v6h-6a25.7 25.7 0 0 0 6-6" style="opacity:1"/></svg>