<svg xmlns="http://www.w3.org/2000/svg" xml:space="preserve" style="fill-rule:evenodd;clip-rule:evenodd;stroke-linejoin:round;stroke-miterlimit:2" viewBox="0 0 87 96"><path d="M86.96 0v10.74H12.03v84.67H0V0z" style="fill-rule:nonzero"/><path d="M86.96 20.37v10.74H34.75v64.3H22.71V20.37z" style="fill-rule:nonzero"/><path d="M86.96 40.67v10.8h-29.5v43.94H45.42V40.67zm34.25-1.05c14.32 0 26.35 9.5 26.35 27.16 0 1.17 0 2.16-.12 3.95h-43.02c.56 8.95 7.78 14.87 16.85 14.87 7.65 0 12.78-3.52 15.61-8.33l9.2 6.54c-4.94 7.78-13.45 12.71-24.93 12.71-16.6 0-28.57-11.79-28.57-28.45.06-16.11 12.03-28.45 28.64-28.45M105.05 61.9h30.43c-1.3-7.9-7.65-12.16-14.69-12.16s-14.13 4.07-15.74 12.16m54.73-21.23h12.03v7.34c3.09-4.38 9.75-8.39 17.59-8.39 15 0 26.35 12.78 26.35 28.45s-11.36 28.45-26.35 28.45c-7.9 0-14.57-4.07-17.59-8.46v30.18h-12.03zm27.46 9.87c-9.75 0-16.42 7.65-16.42 17.53s6.67 17.53 16.42 17.53 16.29-7.65 16.29-17.53-6.67-17.53-16.29-17.53m40.8-37.21h12.03v82.02h-12.03zm34.26 15.43c-4.38 0-8.08-3.58-8.08-8.08s3.7-7.96 8.08-7.96 7.96 3.64 7.96 7.96c0 4.51-3.46 8.08-7.96 8.08m-5.99 11.91h12.03v54.68h-12.03zm53.14 55.79c-16.42 0-28.88-12.28-28.88-28.45s12.47-28.45 28.88-28.45c11.29 0 20.8 6.05 25.49 15.12l-10.49 5.68c-2.65-5.55-7.96-9.63-15-9.63-9.75 0-16.6 7.53-16.6 17.28s6.91 17.28 16.6 17.28c6.97 0 12.34-4.07 15-9.63l10.49 5.68c-4.69 9.13-14.26 15.12-25.49 15.12m58.94-56.84c7.9 0 14.44 4.07 17.53 8.39v-7.34h12.03v54.68h-12.03v-7.34c-3.09 4.38-9.63 8.46-17.53 8.46-15 0-26.35-12.78-26.35-28.45s11.36-28.39 26.35-28.39m2.22 10.92c-9.75 0-16.29 7.65-16.29 17.53s6.54 17.53 16.29 17.53 16.29-7.65 16.29-17.53-6.6-17.53-16.29-17.53m47.95 44.86v-44h-11.42V40.67h11.42V25.49h12.04v15.18h20.73v10.74H430.6v33.2h20.73v10.8zm67.09-55.79c14.32 0 26.35 9.5 26.35 27.16 0 1.17 0 2.16-.12 3.95h-43.02c.56 8.95 7.78 14.87 16.85 14.87 7.65 0 12.78-3.52 15.61-8.33l9.2 6.54c-4.94 7.78-13.45 12.71-24.93 12.71-16.6 0-28.57-11.79-28.57-28.45.12-16.11 12.03-28.45 28.64-28.45M469.49 61.9h30.43c-1.3-7.9-7.65-12.16-14.69-12.16s-14.07 4.07-15.74 12.16" style="fill-rule:nonzero"/></svg>