<svg xmlns="http://www.w3.org/2000/svg" xml:space="preserve" style="fill-rule:evenodd;clip-rule:evenodd;stroke-linejoin:round;stroke-miterlimit:2" viewBox="0 0 512 512"><path d="M375.5 184.5q39.564 7.548 55 45a498 498 0 0 1 3 31 111 111 0 0 0-1 14 73.7 73.7 0 0 1-7 18q-10.5 15.5-26 26-1 0-1 1-3.884-.058-6 3a109 109 0 0 1-14 4 41.5 41.5 0 0 0-8 1q-120.518.465-241-1-2.403-2.361-6-2a5.73 5.73 0 0 1-3-1q-2.3-2.618-6-3a45.8 45.8 0 0 1-11-6.5 194 194 0 0 0-12-11.5 216 216 0 0 1-10-17q-.382-3.7-3-6a88 88 0 0 1-2-9 112.3 112.3 0 0 1 0-28q.264-4.84 2-9 2.395-3.522 3-8 13.592-29.097 44-39 2.855-.444 5-2a7522 7522 0 0 1 245 0" style="fill:#ececf2"/><path d="M234.5 247.5a83 83 0 0 1 1 14q-7.344 16.793-25 11-.71-2.11-3-2l-3-2a27.6 27.6 0 0 0-3.5-6 61 61 0 0 1-.5-11q-.147-3.08 2-5 2.313-1.201 5-1-.371-3.537 2-6 15.933-6.856 25 8" style="fill:#070707"/><path d="M300.5 239.5q4.957 1.957 7 7a87 87 0 0 0 2 8q-1.237 1.329-3 1a29.8 29.8 0 0 1 2 7 5.73 5.73 0 0 0-1 3 25.7 25.7 0 0 1-6 6q-2.82-.406-4 2-11.654 2.399-19.5-6-2.93-4.132-3.5-9a72 72 0 0 1 1-11q2.11-.71 2-3 .5-1.5 2-2 1.818 1.095 3 3l1-1.5q-3.129-4.058 3-5a40.4 40.4 0 0 1 14 .5" style="fill:#040505"/></svg>