<svg xmlns="http://www.w3.org/2000/svg" width="240" height="240" style="shape-rendering:geometricPrecision;text-rendering:geometricPrecision;image-rendering:optimizeQuality;fill-rule:evenodd;clip-rule:evenodd"><path fill="#f9f9f9" d="M-.5-.5h240v35q-48.355-21.975-94 5-63.26-13.724-98.5 40-23.348 50.15 10 94 36.258 38.164 87.5 25 45.894 26.643 95 6v35H-.5z" style="opacity:1"/><path fill="#ed7c1e" d="M239.5 34.5v13q-1.214-2.688-1.5-6-41.896.995-83.5 2a71 71 0 0 1-9-3v-1q45.645-26.974 94-5" style="opacity:1"/><path fill="#d4d9d9" d="M145.5 39.5v1q-16.4 9.899-27 26h-1q-36.51 4.26-48.5 39-7.364 39.505 26.5 60.5 10.435 5.062 22 5.5 0 1 1 1 10.101 15.603 26 25v1q-51.242 13.164-87.5-25-33.348-43.85-10-94 35.24-53.724 98.5-40" style="opacity:1"/><path fill="#ec721f" d="M239.5 47.5v21q-1.442-2.648-1-6a785 785 0 0 0-56 1 137 137 0 0 0-28-20q41.604-1.005 83.5-2 .286 3.312 1.5 6" style="opacity:1"/><path fill="#c85e18" d="M145.5 40.5a71 71 0 0 0 9 3 137 137 0 0 1 28 20 18.9 18.9 0 0 1 3 5 916 916 0 0 1-43 1.5q2.163.565 3 2.5-12.909-5.602-27-6 10.6-16.101 27-26" style="opacity:1"/><path fill="#a1a1a7" d="M117.5 66.5a128 128 0 0 0-12 26 156 156 0 0 0-3 14q-4.076 35.198 15 65-11.565-.438-22-5.5-33.864-20.995-26.5-60.5 11.99-34.74 48.5-39" style="opacity:1"/><path fill="#ec651f" d="M239.5 68.5v24q-1.452-3.16-1-7h-42q-4.4-9.32-11-17a18.9 18.9 0 0 0-3-5 785 785 0 0 1 56-1q-.442 3.352 1 6" style="opacity:1"/><path fill="#963f11" d="M117.5 66.5h1q14.091.398 27 6 11.99 6.99 19 19a871 871 0 0 1-59 1 128 128 0 0 1 12-26" style="opacity:1"/><path fill="#c85119" d="M185.5 68.5q6.6 7.68 11 17l4 11a54 54 0 0 1 2 10q-1.356 1.064-1 3-14.625-.46-29 1-1.692-10.603-8-19-7.01-12.01-19-19-.837-1.935-3-2.5a916 916 0 0 0 43-1.5" style="opacity:1"/><path fill="#ec5c1f" d="M196.5 85.5h42q-.452 3.84 1 7v12q-1.228-4.208-1.5-9a357 357 0 0 1-37.5 1z" style="opacity:1"/><path fill="#963312" d="M164.5 91.5q6.308 8.397 8 19 2.137 10.293-1 20a757 757 0 0 1-67 .5q-.98-12.398-2-24.5a156 156 0 0 1 3-14q29.76.495 59-1" style="opacity:1"/><path fill="#ec4e1f" d="M239.5 104.5v39q-1.235-5.216-1.5-11a325 325 0 0 0-35.5 3q1.704-14.736 0-29a54 54 0 0 0-2-10q18.87.483 37.5-1 .272 4.792 1.5 9" style="opacity:1"/><path fill="#962912" d="M102.5 106.5q1.02 12.102 2 24.5a757 757 0 0 0 67-.5q-1.898 13.294-11 23-16.944 18.472-42 19-1 0-1-1-19.076-29.802-15-65" style="opacity:1"/><path fill="#c83b19" d="M202.5 106.5q1.704 14.264 0 29a74 74 0 0 1-7 18q-17.308-1.951-35 0 9.102-9.706 11-23 3.137-9.707 1-20a219 219 0 0 1 29-1q-.356-1.936 1-3" style="opacity:1"/><path fill="#ec3f1f" d="M239.5 143.5v28q-1.475-5.697-1-12h-45l2-6a74 74 0 0 0 7-18 325 325 0 0 1 35.5-3q.265 5.784 1.5 11" style="opacity:1"/><path fill="#c72c18" d="m195.5 153.5-2 6q-13.863 22.11-37 34.5a35.5 35.5 0 0 1-12 3.5q-15.899-9.397-26-25 25.056-.528 42-19 17.692-1.951 35 0" style="opacity:1"/><path fill="#ec311e" d="M193.5 159.5h45q-.475 6.303 1 12v33q-49.106 20.643-95-6v-1a35.5 35.5 0 0 0 12-3.5q23.137-12.39 37-34.5" style="opacity:1"/></svg>