<svg xmlns="http://www.w3.org/2000/svg" xml:space="preserve" id="Layer_1" x="0" y="0" viewBox="0 0 122.88 100.24"><path d="M2.08 13.44h44.31c-.04.36-.08.72-.1 1.09-.45 8.47 6.04 15.71 14.51 16.15 8.48.45 15.71-6.04 16.15-14.52.05-.92.02-1.84-.09-2.72h46.01V86.8h-45.3v8.29h7.28v5.15H37.88v-5.15h7.28V86.8H0V13.44z" style="fill-rule:evenodd;clip-rule:evenodd"/><path d="M118.73 17.59H82.36v.01H34.1v-.01H4.15v65.05h114.57z"/><path d="M18.69 37.93h7.94v19.41h12.44v6.33H18.69zm23.59 0h7.98v25.74h-7.98zm10.41 0h8.34l5.79 18.51 5.71-18.51h8.06l-9.53 25.74h-8.63zm29.81 0h21.32v5.5H90.44v4.1h12.41v5.24H90.44v5.07h13.74v5.83H82.5zM62.45.02c8.47.44 14.96 7.68 14.51 16.15-.45 8.48-7.68 14.97-16.15 14.52S45.85 23.01 46.3 14.54C46.75 6.08 53.97-.43 62.45.02"/><path d="M62.19 4.98c5.83.31 10.31 5.29 9.99 11.12a10.57 10.57 0 0 1-11.12 10c-5.83-.31-10.31-5.29-9.99-11.12.31-5.83 5.29-10.31 11.12-10m-.34 6.45c2.27.12 4.01 2.06 3.89 4.32a4.113 4.113 0 0 1-4.32 3.89 4.113 4.113 0 0 1-3.89-4.32c.11-2.26 2.05-4.01 4.32-3.89m.12-2.51c1.83.1 3.44.92 4.58 2.18a6.6 6.6 0 0 1 1.69 4.78 6.6 6.6 0 0 1-2.19 4.58 6.6 6.6 0 0 1-4.78 1.69c-1.83-.1-3.46-.92-4.58-2.18A6.6 6.6 0 0 1 55 15.19c.1-1.83.92-3.46 2.18-4.58 1.28-1.13 2.97-1.79 4.79-1.69" style="fill-rule:evenodd;clip-rule:evenodd;fill:#e74040"/></svg>