<svg xmlns="http://www.w3.org/2000/svg" viewBox="0 0 48 48"><title>Wolframalpha</title><g fill-rule="evenodd"><path fill="#f16850" d="m42.5 29.87-7.87 1.68.8 7.82-7.37-3.16L24 43l-4.06-6.79-7.37 3.16.8-7.82-7.87-1.68L10.86 24 5.5 18.13l7.87-1.68-.8-7.82 7.37 3.16L24 5l4.06 6.79 7.37-3.16-.8 7.83 7.87 1.67L37.14 24"/><path fill="#fd694f" d="m24 16.86-4.06-5.07-7.37-3.16 4.39 5.78"/><path fill="#ff3413" d="M13.37 16.45 5.5 18.13 10.86 24l6.3-2.29"/><path fill="#dc1d23" d="m16.96 14.41-4.39-5.78.8 7.82 3.79 5.26"/><path fill="#ff9281" d="M28.06 11.79 24 5l-4.06 6.79L24 16.86"/><path fill="#ff8b79" d="m37.14 24 5.36-5.87-7.87-1.68-3.79 5.26"/><path fill="#fd694f" d="m30.84 21.71 3.79-5.26.81-7.82-4.4 5.78"/><path fill="#ef5240" d="m31.04 14.41 4.4-5.78-7.38 3.16L24 16.86"/><path fill="#ff482c" d="m35.4 27.5 7.1 2.37L37.14 24l-6.3-2.29"/><path fill="#ec2101" d="M17.16 21.71 10.86 24 5.5 29.87l7.1-2.37"/><path fill="#d21c22" d="M24 35.59V43l4.06-6.79.17-6.65"/><path fill="#c90901" d="m35.4 27.5-7.17 2.06 6.4 1.99 7.87-1.68"/><path fill="#ec2101" d="m28.06 36.21 7.37 3.16-.8-7.82-6.4-1.99"/><path fill="#b6171e" d="m12.6 27.5-7.1 2.37 7.87 1.67 6.4-1.98"/><path fill="#b4151b" d="m19.77 29.56.17 6.65L24 43v-7.41"/><path fill="#d21c22" d="m13.37 31.54-.8 7.83 7.37-3.16-.17-6.65"/><path fill="#e63320" d="m30.84 21.71.2-7.3L24 16.86v7.1"/><path fill="#ff4527" d="m24 16.86-7.04-2.45.2 7.3L24 23.96"/><path fill="#ff9281" d="M19.77 29.56 24 35.59l4.23-6.03-4.23-5.6"/><path fill="#fd684d" d="m24 23.96 4.23 5.6 7.17-2.06-4.56-5.79"/><path fill="#fd745c" d="M17.16 21.71 12.6 27.5l7.17 2.06 4.23-5.6"/></g></svg>