<svg xmlns="http://www.w3.org/2000/svg" width="128" height="128"><g style="display:inline;opacity:1"><g style="fill:maroon;fill-opacity:1;stroke:#fff;stroke-width:1.60191178000000001;stroke-linecap:round;stroke-miterlimit:4;stroke-opacity:1;stroke-dasharray:none;display:inline;stroke-linejoin:round"><path d="M447.834 669.1c-80.631-57.032-80.631-57.032-80.631-199.61 34.556 0 46.075 0 80.63-28.515m0 228.124c80.632-57.03 80.632-57.03 80.632-199.609-34.556 0-46.075 0-80.631-28.515" style="fill:maroon;fill-opacity:1;fill-rule:nonzero;stroke:#fff;stroke-width:1.60191178;stroke-linecap:round;stroke-linejoin:round;stroke-miterlimit:4;stroke-opacity:1;stroke-dasharray:none" transform="matrix(-.69452 0 0 .5611 375.03 -247.43)"/></g></g><g style="display:inline" transform="translate(-17.873 -17.325)"><circle cx="102.123" cy="81.325" r="12" style="fill:none;stroke:#fff;stroke-width:5.99999952;stroke-miterlimit:4;stroke-opacity:1;stroke-dasharray:none;display:inline" transform="translate(-42.29 -31.108)scale(1.33333)"/><g style="fill:#fff;fill-opacity:1;stroke:#fff;stroke-width:1.99999996999999996;stroke-miterlimit:4;stroke-opacity:1;stroke-dasharray:none"><path stroke="none" d="M81.725 81.472c0 11.02-4.99 16.029-15.971 16.029s-15.971-5.01-15.971-16.03V57.43h7.985v24.043c0 7.013.999 8.014 7.986 8.014s7.986-1.001 7.986-8.014V57.429h7.985z" style="fill:#fff;stroke:#fff;stroke-width:0;stroke-linecap:square;stroke-linejoin:miter;stroke-miterlimit:4;stroke-dasharray:none" transform="scale(1.0018 .9982)"/></g></g></svg>