<svg xmlns="http://www.w3.org/2000/svg" font-family="'Segoe UI',Arial,sans-serif" viewBox="0 0 860 660"><path fill="#0f172a" d="M0 0h860v660H0z"/><rect width="266" height="36" x="16" y="8" fill="#14532d" rx="5"/><text x="149" y="31" fill="#bbf7d0" font-size="14" font-weight="700" text-anchor="middle">Linux</text><rect width="266" height="36" x="297" y="8" fill="#1e3a8a" rx="5"/><text x="430" y="31" fill="#bfdbfe" font-size="14" font-weight="700" text-anchor="middle">Windows</text><rect width="266" height="36" x="578" y="8" fill="#4c1d95" rx="5"/><text x="711" y="31" fill="#e9d5ff" font-size="14" font-weight="700" text-anchor="middle">macOS</text><rect width="266" height="72" x="16" y="48" fill="#92400e" rx="3"/><path fill="#22c55e" d="M16 48h4v72h-4z"/><text x="149" y="73" fill="#fff" font-size="12" font-weight="700" text-anchor="middle">Applications</text><text x="149" y="91" fill="#fde68a" font-size="10" text-anchor="middle">Flatpak · Snap · AppImage · CLI</text><rect width="266" height="72" x="297" y="48" fill="#92400e" rx="3"/><path fill="#60a5fa" d="M297 48h4v72h-4z"/><text x="430" y="73" fill="#fff" font-size="12" font-weight="700" text-anchor="middle">Applications</text><text x="430" y="91" fill="#fde68a" font-size="10" text-anchor="middle">Win32 · UWP · MSIX · Electron</text><rect width="266" height="72" x="578" y="48" fill="#92400e" rx="3"/><path fill="#c084fc" d="M578 48h4v72h-4z"/><text x="711" y="73" fill="#fff" font-size="12" font-weight="700" text-anchor="middle">Applications</text><text x="711" y="91" fill="#fde68a" font-size="10" text-anchor="middle">Cocoa · SwiftUI · Catalyst · Electron</text><rect width="266" height="72" x="16" y="124" fill="#065f46" rx="3"/><path fill="#22c55e" d="M16 124h4v72h-4z"/><text x="149" y="149" fill="#fff" font-size="12" font-weight="700" text-anchor="middle">Desktop Environment &amp; Shell</text><text x="149" y="167" fill="#a7f3d0" font-size="10" text-anchor="middle">GNOME · KDE · XFCE · bash · zsh</text><rect width="266" height="72" x="297" y="124" fill="#065f46" rx="3"/><path fill="#60a5fa" d="M297 124h4v72h-4z"/><text x="430" y="149" fill="#fff" font-size="12" font-weight="700" text-anchor="middle">Shell &amp; Terminal</text><text x="430" y="167" fill="#a7f3d0" font-size="10" text-anchor="middle">Explorer.exe · PowerShell · CMD</text><rect width="266" height="72" x="578" y="124" fill="#065f46" rx="3"/><path fill="#c084fc" d="M578 124h4v72h-4z"/><text x="711" y="149" fill="#fff" font-size="12" font-weight="700" text-anchor="middle">Aqua UI &amp; Shell</text><text x="711" y="167" fill="#a7f3d0" font-size="10" text-anchor="middle">Finder · Dock · zsh · Terminal.app</text><rect width="266" height="72" x="16" y="200" fill="#5b21b6" rx="3"/><path fill="#22c55e" d="M16 200h4v72h-4z"/><text x="149" y="225" fill="#fff" font-size="12" font-weight="700" text-anchor="middle">WM / Compositor / Login</text><text x="149" y="243" fill="#ddd6fe" font-size="10" text-anchor="middle">Mutter · KWin · sway · GDM · SDDM</text><rect width="266" height="72" x="297" y="200" fill="#5b21b6" rx="3"/><path fill="#60a5fa" d="M297 200h4v72h-4z"/><text x="430" y="225" fill="#fff" font-size="12" font-weight="700" text-anchor="middle">Desktop Window Manager</text><text x="430" y="243" fill="#ddd6fe" font-size="10" text-anchor="middle">DWM · DirectComposition</text><rect width="266" height="72" x="578" y="200" fill="#5b21b6" rx="3"/><path fill="#c084fc" d="M578 200h4v72h-4z"/><text x="711" y="225" fill="#fff" font-size="12" font-weight="700" text-anchor="middle">Quartz Compositor</text><text x="711" y="243" fill="#ddd6fe" font-size="10" text-anchor="middle">WindowServer · Core Animation</text><rect width="266" height="72" x="16" y="276" fill="#075985" rx="3"/><path fill="#22c55e" d="M16 276h4v72h-4z"/><text x="149" y="301" fill="#fff" font-size="12" font-weight="700" text-anchor="middle">Display Protocol</text><text x="149" y="319" fill="#bae6fd" font-size="10" text-anchor="middle">X11 / Xorg · Wayland</text><rect width="266" height="72" x="297" y="276" fill="#075985" rx="3"/><path fill="#60a5fa" d="M297 276h4v72h-4z"/><text x="430" y="301" fill="#fff" font-size="12" font-weight="700" text-anchor="middle">Runtime &amp; APIs</text><text x="430" y="319" fill="#bae6fd" font-size="10" text-anchor="middle">.NET · DirectX · VCRuntime</text><rect width="266" height="72" x="578" y="276" fill="#075985" rx="3"/><path fill="#c084fc" d="M578 276h4v72h-4z"/><text x="711" y="301" fill="#fff" font-size="12" font-weight="700" text-anchor="middle">Graphics Frameworks</text><text x="711" y="319" fill="#bae6fd" font-size="10" text-anchor="middle">Core Graphics · Metal · OpenGL</text><rect width="266" height="72" x="16" y="352" fill="#1e40af" rx="3"/><path fill="#22c55e" d="M16 352h4v72h-4z"/><text x="149" y="377" fill="#fff" font-size="12" font-weight="700" text-anchor="middle">Init System &amp; Libs</text><text x="149" y="395" fill="#bfdbfe" font-size="10" text-anchor="middle">systemd · OpenRC · glibc · musl</text><rect width="266" height="72" x="297" y="352" fill="#1e40af" rx="3"/><path fill="#60a5fa" d="M297 352h4v72h-4z"/><text x="430" y="377" fill="#fff" font-size="12" font-weight="700" text-anchor="middle">Subsystems</text><text x="430" y="395" fill="#bfdbfe" font-size="10" text-anchor="middle">Win32 · WinRT · UWP · WSL2</text><rect width="266" height="72" x="578" y="352" fill="#1e40af" rx="3"/><path fill="#c084fc" d="M578 352h4v72h-4z"/><text x="711" y="377" fill="#fff" font-size="12" font-weight="700" text-anchor="middle">Core OS Services</text><text x="711" y="395" fill="#bfdbfe" font-size="10" text-anchor="middle">launchd · libSystem · BSD APIs</text><rect width="266" height="72" x="16" y="428" fill="#1e3a8a" rx="3"/><path fill="#22c55e" d="M16 428h4v72h-4z"/><text x="149" y="453" fill="#fff" font-size="12" font-weight="700" text-anchor="middle">Linux Kernel</text><text x="149" y="471" fill="#93c5fd" font-size="10" text-anchor="middle">Modules · Drivers · Syscalls</text><rect width="266" height="72" x="297" y="428" fill="#1e3a8a" rx="3"/><path fill="#60a5fa" d="M297 428h4v72h-4z"/><text x="430" y="453" fill="#fff" font-size="12" font-weight="700" text-anchor="middle">NT Kernel</text><text x="430" y="471" fill="#93c5fd" font-size="10" text-anchor="middle">ntoskrnl.exe · HAL · Drivers</text><rect width="266" height="72" x="578" y="428" fill="#1e3a8a" rx="3"/><path fill="#c084fc" d="M578 428h4v72h-4z"/><text x="711" y="453" fill="#fff" font-size="12" font-weight="700" text-anchor="middle">XNU Kernel</text><text x="711" y="471" fill="#93c5fd" font-size="10" text-anchor="middle">Mach · BSD · DriverKit</text><rect width="266" height="72" x="16" y="504" fill="#1e293b" rx="3"/><path fill="#22c55e" d="M16 504h4v72h-4z"/><text x="149" y="529" fill="#fff" font-size="12" font-weight="700" text-anchor="middle">Bootloader</text><text x="149" y="547" fill="#94a3b8" font-size="10" text-anchor="middle">GRUB · systemd-boot · rEFInd</text><rect width="266" height="72" x="297" y="504" fill="#1e293b" rx="3"/><path fill="#60a5fa" d="M297 504h4v72h-4z"/><text x="430" y="529" fill="#fff" font-size="12" font-weight="700" text-anchor="middle">Boot Manager</text><text x="430" y="547" fill="#94a3b8" font-size="10" text-anchor="middle">bootmgr · BCD · UEFI loader</text><rect width="266" height="72" x="578" y="504" fill="#1e293b" rx="3"/><path fill="#c084fc" d="M578 504h4v72h-4z"/><text x="711" y="529" fill="#fff" font-size="12" font-weight="700" text-anchor="middle">Bootloader</text><text x="711" y="547" fill="#94a3b8" font-size="10" text-anchor="middle">iBoot · boot.efi</text><rect width="266" height="72" x="16" y="580" fill="#111827" stroke="#374151" rx="3"/><path fill="#22c55e" d="M16 580h4v72h-4z"/><text x="149" y="605" fill="#e2e8f0" font-size="12" font-weight="700" text-anchor="middle">Firmware</text><text x="149" y="623" fill="#64748b" font-size="10" text-anchor="middle">UEFI · BIOS · coreboot</text><rect width="266" height="72" x="297" y="580" fill="#111827" stroke="#374151" rx="3"/><path fill="#60a5fa" d="M297 580h4v72h-4z"/><text x="430" y="605" fill="#e2e8f0" font-size="12" font-weight="700" text-anchor="middle">Firmware</text><text x="430" y="623" fill="#64748b" font-size="10" text-anchor="middle">UEFI · Secure Boot</text><rect width="266" height="72" x="578" y="580" fill="#111827" stroke="#374151" rx="3"/><path fill="#c084fc" d="M578 580h4v72h-4z"/><text x="711" y="605" fill="#e2e8f0" font-size="12" font-weight="700" text-anchor="middle">Firmware</text><text x="711" y="623" fill="#64748b" font-size="10" text-anchor="middle">Boot ROM · T2 / M-series</text></svg>