<svg xmlns="http://www.w3.org/2000/svg" width="437.333" height="437.333" viewBox="0 0 328 328"><path d="M153.5 38.1c-1.6.5-4.1 1.1-5.5 1.3-1.4.3-10.6 2.5-20.5 5-9.9 2.6-18.9 4.8-20 5S101.7 50.8 97 52s-9.2 2.3-10 2.5l-8 2-8 2c-.8.2-9.8 2.4-20 5-10.2 2.5-19.5 4.8-20.6 5.1-1.2.2-8.3 2-15.8 3.9S.7 76 .5 76c-.3 0-.5 34.8-.5 77.4v77.4l8.5 2.3 8.5 2.2v16.6l3.8 1c7.5 1.9 32.7 8.3 34.2 8.6.8.2 16.1 4 34 8.5s33.2 8.3 34 8.5 7.8 2 15.5 4 15.1 3.8 16.5 4.1 4.3 1 6.5 1.6c6.1 1.7 6.7 1.9 10.5 2.2 1.9.1 4.1-.2 4.8-.7.6-.5 1.2-.7 1.2-.4s3-.3 6.8-1.4c3.7-1.1 8-2.2 9.6-2.5 1.6-.2 3.2-.7 3.6-.9.3-.2 1.7-.6 3.1-.9 1.3-.2 6.2-1.4 10.9-2.5 4.7-1.2 9.4-2.3 10.5-2.6 1.1-.2 4.7-1.1 8-2s6.7-1.8 7.5-2c3.1-.7 10.4-2.5 48-12 21.2-5.3 39.2-9.8 40-9.9 1.3-.3 1.5-9.8 1.8-77.8l.2-77.5-4.2-1.1c-2.4-.7-6.2-1.6-8.5-2.2l-4.3-1.1v-8.4c0-8.4 0-8.5-2.7-9.1-8.6-2-27.2-6.6-29.8-7.4-2.5-.7-12.4-3.2-18.5-4.5l-8-2c-3.6-.9-7.6-1.9-9-2.1-1.4-.3-3.8-.9-5.5-1.4-1.6-.5-4.8-1.3-7-1.9-2.2-.5-6.8-1.7-10.3-2.6s-7.2-1.8-8.3-2c-1.2-.2-2.8-.6-3.7-.9s-3-.7-4.5-1c-1.6-.3-4.3-1-6-1.5-1.8-.6-4.5-1.3-6.2-1.6-3.5-.7-5.8-1.3-6.5-1.6-.3-.1-.9-.3-1.5-.4-.5-.1-2.8-.7-5-1.3s-5.5-1.4-7.4-1.7-3.8-.8-4.3-1.1-2.4-.8-4.1-1.1c-1.8-.3-3.9-.8-4.7-1.3-.8-.4-2.8-.3-4.5.1"/></svg>